<svg xmlns="http://www.w3.org/2000/svg" xmlns:xlink="http://www.w3.org/1999/xlink" width="80" zoomAndPan="magnify" viewBox="0 0 60 60" height="80" preserveAspectRatio="xMidYMid meet" version="1.0"><defs><clipPath id="9ed92a026c"><path d="M 0.0273438 0 L 42.722656 0 L 42.722656 60 L 0.0273438 60 Z M 0.0273438 0 " clip-rule="nonzero"/></clipPath></defs><g clip-path="url(#9ed92a026c)"><path fill="#000000" d="M 38.125 37.976562 C 38.175781 38.023438 38.257812 37.964844 38.222656 37.902344 C 38.066406 37.652344 37.933594 37.363281 37.863281 37.074219 C 37.789062 36.773438 37.816406 36.476562 37.777344 36.175781 C 37.765625 36.089844 37.660156 36.066406 37.636719 36.152344 L 37.636719 36.164062 C 37.609375 36.164062 37.585938 36.164062 37.574219 36.175781 C 36.699219 36.679688 36.566406 38.585938 37.636719 38.945312 C 37.742188 38.984375 37.839844 38.851562 37.777344 38.753906 C 37.695312 38.597656 37.585938 38.539062 37.453125 38.40625 C 37.226562 38.179688 37.167969 37.902344 37.167969 37.589844 C 37.167969 37.125 37.261719 36.726562 37.585938 36.402344 C 37.515625 36.953125 37.800781 37.578125 38.125 37.976562 Z M 30.925781 14.648438 C 30.84375 14.609375 30.746094 14.707031 30.832031 14.777344 C 30.949219 14.886719 31.09375 14.972656 31.226562 15.078125 C 31.347656 15.1875 31.464844 15.308594 31.574219 15.425781 C 31.636719 15.488281 31.71875 15.402344 31.671875 15.332031 C 31.453125 15.089844 31.214844 14.789062 30.925781 14.648438 Z M 32.019531 17.789062 C 31.984375 17.707031 31.875 17.742188 31.886719 17.828125 C 31.945312 18.269531 32.332031 18.535156 32.605469 18.847656 C 33.0625 19.363281 33.316406 19.949219 33.496094 20.621094 C 33.53125 20.765625 33.734375 20.707031 33.710938 20.5625 C 33.625 20.046875 33.410156 19.542969 33.109375 19.121094 C 32.773438 18.65625 32.222656 18.34375 32.019531 17.789062 Z M 15.9375 51.691406 C 15.988281 51.425781 16.09375 51.03125 15.976562 50.777344 C 15.949219 50.742188 15.890625 50.753906 15.878906 50.789062 C 15.84375 50.910156 15.867188 51.042969 15.867188 51.175781 C 15.867188 51.34375 15.855469 51.5 15.820312 51.65625 C 15.804688 51.738281 15.914062 51.773438 15.9375 51.691406 Z M 16.09375 39.425781 C 15.769531 40.160156 15.578125 40.914062 15.554688 41.71875 C 15.53125 42.65625 15.988281 43.640625 15.613281 44.539062 C 15.578125 44.609375 15.699219 44.671875 15.746094 44.609375 C 16.226562 44.144531 16.023438 43.496094 15.914062 42.90625 C 15.699219 41.742188 15.832031 40.589844 16.238281 39.488281 C 16.273438 39.402344 16.128906 39.332031 16.09375 39.425781 Z M 22.359375 42.414062 C 22.347656 42.367188 22.273438 42.355469 22.25 42.402344 C 22.117188 42.667969 22.191406 43.074219 22.214844 43.363281 C 22.226562 43.445312 22.347656 43.445312 22.347656 43.363281 C 22.347656 43.195312 22.347656 43.027344 22.359375 42.859375 C 22.359375 42.714844 22.394531 42.558594 22.359375 42.414062 Z M 40.921875 38.539062 C 40.550781 38.957031 40.324219 39.175781 39.757812 39.164062 C 39.804688 39.007812 39.699219 38.804688 39.640625 38.671875 C 39.542969 38.453125 39.398438 38.273438 39.21875 38.105469 C 39.171875 38.070312 39.097656 38.117188 39.136719 38.167969 C 39.265625 38.335938 39.375 38.527344 39.457031 38.730469 C 39.507812 38.851562 39.507812 39.019531 39.566406 39.140625 C 39.496094 39.140625 39.433594 39.140625 39.363281 39.164062 C 39.277344 39.199219 39.171875 39.320312 39.085938 39.34375 C 39.050781 39.355469 38.992188 39.355469 38.941406 39.355469 C 38.894531 39.222656 38.847656 39.113281 38.871094 38.972656 C 38.882812 38.875 38.75 38.828125 38.726562 38.933594 C 38.703125 39.054688 38.691406 39.199219 38.726562 39.332031 C 38.402344 39.269531 38.042969 39.1875 38.054688 39.632812 C 38.054688 39.738281 38.210938 39.738281 38.222656 39.632812 C 38.246094 39.425781 38.894531 39.738281 39.027344 39.714844 C 39.195312 39.691406 39.171875 39.632812 39.316406 39.570312 C 39.589844 39.4375 39.699219 39.5 39.976562 39.5 C 40.480469 39.5 41.066406 39.152344 41.101562 38.609375 C 41.113281 38.527344 40.984375 38.46875 40.921875 38.539062 Z M 37.839844 39.738281 C 37.707031 39.738281 37.574219 39.785156 37.429688 39.761719 C 37.359375 39.75 37.285156 39.726562 37.226562 39.703125 C 37.117188 39.644531 37.214844 39.59375 37.296875 39.558594 C 37.453125 39.488281 37.648438 39.414062 37.609375 39.210938 C 37.597656 39.128906 37.464844 39.128906 37.441406 39.210938 C 37.40625 39.367188 37.179688 39.367188 37.058594 39.464844 C 36.960938 39.546875 36.902344 39.691406 36.988281 39.8125 C 37.15625 40.050781 37.707031 40.097656 37.921875 39.90625 C 37.984375 39.847656 37.921875 39.738281 37.839844 39.738281 Z M 39.746094 36.140625 C 39.746094 36.128906 39.757812 36.113281 39.769531 36.089844 C 40 35.816406 40.40625 35.515625 40.816406 35.394531 C 40.15625 34.832031 39.566406 34.421875 38.691406 34.265625 C 38.679688 34.265625 38.65625 34.253906 38.644531 34.253906 C 37.800781 34.484375 36.976562 34.769531 36.160156 35.105469 C 36.484375 35.179688 36.804688 35.285156 37.105469 35.394531 C 37.429688 35.503906 37.765625 35.597656 38.007812 35.851562 C 38.605469 35.597656 39.277344 35.695312 39.746094 36.140625 Z M 26.726562 36.28125 C 26.882812 36.113281 26.808594 35.945312 26.75 35.765625 C 26.703125 35.625 26.871094 35.492188 27.003906 35.550781 C 27.097656 35.480469 27.21875 35.429688 27.351562 35.382812 C 27.410156 35.359375 27.507812 35.335938 27.542969 35.285156 C 27.53125 35.285156 27.53125 35.273438 27.519531 35.273438 C 27.496094 35.296875 27.457031 35.296875 27.433594 35.273438 C 27.300781 35.191406 27.160156 35.179688 27.015625 35.179688 C 26.917969 35.179688 26.824219 35.191406 26.75 35.144531 C 26.738281 35.15625 26.726562 35.15625 26.714844 35.167969 C 26.414062 35.359375 26.164062 35.683594 25.839844 35.804688 C 25.777344 35.828125 25.707031 35.789062 25.671875 35.730469 C 25.621094 35.777344 25.585938 35.828125 25.539062 35.863281 C 25.503906 35.898438 25.453125 35.910156 25.417969 35.921875 C 25.335938 36.089844 25.058594 36.042969 25.035156 35.839844 C 24.867188 35.660156 24.746094 35.429688 24.613281 35.226562 C 24.554688 35.132812 24.496094 35.023438 24.421875 34.925781 C 24.445312 35 24.410156 35.09375 24.300781 35.105469 C 24.136719 35.117188 23.953125 35.3125 23.847656 35.429688 C 23.796875 35.492188 23.691406 35.609375 23.714844 35.695312 C 23.738281 35.777344 23.808594 35.765625 23.871094 35.789062 C 23.917969 35.816406 23.953125 35.839844 23.980469 35.886719 C 24.0625 35.910156 24.121094 36.019531 24.074219 36.113281 C 24.003906 36.257812 23.917969 36.390625 23.90625 36.558594 C 23.894531 36.644531 23.90625 36.871094 24.039062 36.871094 C 24.121094 36.871094 24.265625 36.714844 24.363281 36.691406 C 24.496094 36.65625 24.578125 36.691406 24.6875 36.773438 C 24.6875 36.773438 24.6875 36.773438 24.699219 36.785156 C 24.710938 36.785156 24.722656 36.785156 24.746094 36.785156 C 24.890625 36.824219 25.023438 36.882812 25.167969 36.941406 C 25.394531 37.039062 25.515625 36.980469 25.671875 36.824219 C 25.777344 36.703125 25.886719 36.59375 26.019531 36.546875 C 26.03125 36.476562 26.089844 36.425781 26.175781 36.425781 C 26.355469 36.425781 26.570312 36.449219 26.726562 36.28125 Z M 24.902344 31.472656 C 24.902344 31.457031 24.902344 31.457031 24.902344 31.472656 Z M 25.09375 31.542969 Z M 25.261719 31.652344 C 25.324219 31.78125 25.371094 31.914062 25.40625 32.046875 C 25.40625 31.855469 25.394531 31.664062 25.359375 31.472656 C 25.359375 31.53125 25.324219 31.601562 25.261719 31.652344 Z M 25.683594 49.554688 C 25 49.074219 24.339844 48.5 24.085938 47.695312 C 24.0625 48.761719 23.929688 49.914062 24.589844 50.816406 C 24.640625 50.875 24.53125 50.957031 24.484375 50.898438 C 23.808594 50.117188 23.796875 49.027344 23.808594 48.007812 C 23.761719 48.078125 23.714844 48.164062 23.667969 48.246094 C 23.476562 48.632812 23.4375 49.074219 23.257812 49.457031 C 23.257812 49.472656 23.269531 49.484375 23.269531 49.496094 C 23.304688 50.441406 23.929688 51.101562 24.265625 51.941406 C 24.507812 52.554688 24.6875 53.203125 24.757812 53.851562 C 25.371094 53.132812 25.660156 52.289062 25.71875 51.332031 C 25.742188 50.816406 25.574219 50.09375 25.683594 49.554688 Z M 16.683594 44.996094 C 16.777344 45.101562 16.839844 45.234375 16.828125 45.378906 C 16.816406 45.4375 16.789062 45.5 16.742188 45.523438 C 16.777344 45.546875 16.800781 45.582031 16.777344 45.644531 C 16.765625 45.667969 16.765625 45.691406 16.753906 45.714844 C 16.851562 45.570312 16.96875 45.4375 17.078125 45.332031 C 17.210938 45.1875 17.34375 45.042969 17.476562 44.921875 C 17.210938 45.007812 16.921875 45.054688 16.683594 44.996094 Z M 14.390625 46.242188 C 14.402344 46.242188 14.414062 46.242188 14.414062 46.242188 C 14.304688 46.195312 14.199219 46.148438 14.101562 46.074219 C 14.042969 46.171875 13.957031 46.207031 13.851562 46.207031 C 13.789062 46.242188 13.730469 46.277344 13.671875 46.304688 C 13.921875 46.277344 14.152344 46.253906 14.390625 46.242188 Z M 14.007812 45.605469 C 14.066406 45.632812 14.125 45.644531 14.175781 45.65625 C 13.898438 45.4375 13.660156 45.1875 13.480469 44.921875 C 13.636719 45.164062 13.816406 45.390625 14.007812 45.605469 Z M 13.226562 44.515625 C 13.25 44.550781 13.273438 44.597656 13.296875 44.636719 C 13.285156 44.625 13.285156 44.609375 13.273438 44.585938 C 13.261719 44.550781 13.25 44.527344 13.261719 44.492188 C 13.25 44.503906 13.238281 44.515625 13.226562 44.515625 Z M 41.65625 38.707031 C 41.5 38.777344 41.367188 38.742188 41.234375 38.648438 C 41.113281 38.550781 41.042969 38.417969 40.863281 38.417969 C 40.71875 38.417969 40.597656 38.515625 40.453125 38.539062 C 40.359375 38.5625 40.261719 38.429688 40.347656 38.359375 C 40.359375 38.347656 40.371094 38.347656 40.382812 38.335938 C 40.453125 37.652344 40.25 37.160156 39.84375 36.605469 C 39.386719 36.007812 38.847656 35.921875 38.1875 36.042969 C 38.535156 36.320312 38.824219 36.644531 39.039062 37.027344 C 39.074219 37.097656 38.980469 37.160156 38.929688 37.085938 C 38.679688 36.714844 38.367188 36.402344 38.007812 36.140625 C 37.984375 36.128906 37.96875 36.101562 37.96875 36.089844 C 37.875 36.101562 37.816406 36.007812 37.851562 35.933594 C 37.25 35.503906 36.421875 35.46875 35.738281 35.285156 C 35.03125 35.597656 34.324219 35.957031 33.640625 36.367188 C 33.925781 36.667969 34.179688 37.027344 34.394531 37.433594 C 34.429688 37.496094 34.335938 37.542969 34.296875 37.484375 C 34.070312 37.0625 33.804688 36.714844 33.507812 36.4375 C 33.507812 36.4375 33.507812 36.4375 33.496094 36.4375 C 33.351562 36.523438 33.230469 36.367188 33.277344 36.246094 C 32.992188 36.019531 32.667969 35.851562 32.34375 35.71875 C 32.246094 35.816406 32.054688 35.730469 32.03125 35.609375 C 30.78125 35.226562 29.320312 35.3125 27.976562 35.3125 C 27.960938 35.394531 27.925781 35.492188 27.878906 35.550781 C 27.867188 35.5625 27.84375 35.585938 27.832031 35.597656 C 28.261719 35.695312 28.660156 35.921875 28.984375 36.210938 C 29.042969 36.269531 28.957031 36.355469 28.886719 36.308594 C 28.480469 35.996094 28.046875 35.851562 27.566406 35.765625 C 27.542969 35.777344 27.519531 35.777344 27.507812 35.789062 C 27.421875 35.828125 27.328125 35.839844 27.242188 35.886719 C 27.253906 35.910156 27.253906 35.945312 27.253906 35.972656 C 28.324219 36.246094 29.269531 37.265625 29.738281 38.214844 C 29.773438 38.273438 29.679688 38.335938 29.644531 38.273438 C 29.34375 37.769531 28.957031 37.304688 28.503906 36.929688 C 28.105469 36.605469 27.675781 36.425781 27.230469 36.222656 C 27.207031 36.320312 27.171875 36.402344 27.121094 36.476562 C 27.664062 36.738281 27.988281 37.457031 28.203125 37.949219 C 28.226562 38.011719 28.144531 38.070312 28.105469 38.011719 C 27.9375 37.675781 27.769531 37.316406 27.519531 37.039062 C 27.363281 36.859375 27.183594 36.75 26.980469 36.65625 C 26.917969 36.703125 26.859375 36.738281 26.785156 36.761719 C 27.300781 37.277344 27.613281 37.902344 27.722656 38.636719 C 27.890625 39.761719 27.675781 41.273438 28.984375 41.789062 C 29.042969 41.816406 29.019531 41.910156 28.957031 41.886719 C 28.273438 41.660156 27.925781 41.070312 27.757812 40.386719 C 27.433594 39.042969 27.625 37.832031 26.546875 36.8125 C 26.4375 36.824219 26.34375 36.824219 26.234375 36.796875 C 26.175781 36.90625 26.089844 37.015625 25.996094 37.109375 C 26.449219 39.871094 26.367188 43.542969 29.859375 44.082031 C 29.953125 44.09375 30.003906 44.167969 30.015625 44.25 C 30.039062 44.203125 30.085938 44.15625 30.160156 44.167969 C 30.183594 44.167969 30.195312 44.167969 30.21875 44.167969 C 30.207031 44.15625 30.195312 44.132812 30.183594 44.105469 C 30.039062 43.601562 30.289062 43.183594 30.664062 42.847656 C 30.914062 42.617188 31.226562 42.4375 31.453125 42.175781 C 31.898438 41.648438 31.777344 41.191406 31.851562 40.589844 C 31.898438 40.109375 32.113281 39.835938 32.511719 39.59375 C 32.476562 39.535156 32.4375 39.476562 32.402344 39.414062 C 32.332031 39.308594 32.246094 39.199219 32.152344 39.101562 C 32.089844 39.042969 32.1875 38.945312 32.246094 39.007812 C 32.355469 39.101562 32.449219 39.199219 32.535156 39.308594 C 32.582031 39.367188 32.628906 39.425781 32.65625 39.5 C 32.703125 39.476562 32.738281 39.449219 32.785156 39.425781 C 32.65625 39.164062 32.523438 38.910156 32.320312 38.671875 C 32.078125 38.40625 31.816406 38.179688 31.539062 37.949219 C 31.480469 37.902344 31.5625 37.792969 31.621094 37.84375 C 32.125 38.203125 32.773438 38.695312 32.980469 39.320312 C 33.613281 38.945312 34.070312 38.585938 34.214844 37.710938 C 34.226562 37.640625 34.335938 37.664062 34.335938 37.722656 C 34.308594 38.226562 34.144531 38.695312 33.792969 39.066406 C 33.578125 39.292969 33.300781 39.449219 33.039062 39.59375 C 33.027344 39.644531 32.980469 39.667969 32.929688 39.65625 C 32.644531 39.824219 32.390625 40.027344 32.269531 40.363281 C 32.042969 41 32.234375 41.636719 31.828125 42.222656 C 31.371094 42.894531 30.433594 43.136719 30.421875 44.070312 C 30.421875 44.105469 30.410156 44.144531 30.386719 44.167969 C 31.144531 44.117188 31.765625 43.699219 32.378906 43.253906 C 32.941406 42.847656 33.578125 42.378906 34.011719 41.828125 C 34.492188 41.214844 34.214844 40.664062 34.308594 39.992188 C 34.347656 39.773438 34.40625 39.679688 34.464844 39.488281 C 34.609375 39.257812 34.71875 38.996094 34.753906 38.71875 C 34.707031 38.417969 34.609375 38.132812 34.480469 37.867188 C 34.429688 37.769531 34.5625 37.699219 34.621094 37.78125 C 35.03125 38.371094 35.152344 38.789062 34.863281 39.464844 C 34.464844 40.339844 34.957031 41.25 34.324219 42.054688 C 33.792969 42.726562 33.015625 43.277344 32.320312 43.757812 C 31.636719 44.238281 30.9375 44.648438 30.085938 44.515625 C 30.015625 44.503906 29.980469 44.453125 29.964844 44.40625 C 29.929688 44.480469 29.871094 44.539062 29.773438 44.527344 C 28.335938 44.429688 27.109375 43.507812 26.546875 42.1875 C 26.546875 42.175781 26.535156 42.164062 26.535156 42.140625 C 26.5 42.761719 26.367188 43.421875 26.113281 44.023438 C 29.4375 45.5 30.097656 49.613281 28.800781 52.699219 C 28.777344 52.746094 28.742188 52.78125 28.695312 52.792969 C 28.695312 52.808594 28.707031 52.820312 28.707031 52.832031 C 28.753906 53.046875 28.417969 53.144531 28.371094 52.925781 C 28.179688 52.109375 27.976562 51.402344 27.351562 50.789062 C 26.90625 50.359375 26.355469 50.035156 25.839844 49.6875 C 26.175781 51.28125 25.96875 53.035156 24.804688 54.257812 C 24.664062 54.402344 24.445312 54.1875 24.578125 54.03125 C 24.445312 52.988281 24.121094 52.148438 23.558594 51.246094 C 23.28125 50.804688 23.007812 50.371094 22.96875 49.878906 C 22.789062 50.09375 22.5625 50.261719 22.347656 50.429688 C 22.203125 50.539062 22.011719 50.285156 22.15625 50.179688 C 22.492188 49.890625 22.777344 49.640625 22.957031 49.242188 C 22.324219 49.097656 21.734375 48.835938 21.195312 48.449219 C 21.121094 48.402344 21.183594 48.28125 21.265625 48.332031 C 21.832031 48.644531 22.417969 48.882812 23.042969 49.015625 C 23.113281 48.785156 23.164062 48.558594 23.257812 48.34375 C 23.367188 48.101562 23.523438 47.933594 23.644531 47.707031 C 23.691406 47.636719 23.714844 47.5625 23.75 47.492188 C 23.582031 47.441406 23.414062 47.371094 23.246094 47.324219 C 22.96875 47.238281 22.695312 47.179688 22.417969 47.117188 C 22.335938 47.09375 22.359375 46.964844 22.441406 46.964844 C 22.875 46.976562 23.390625 47.035156 23.796875 47.226562 C 23.808594 47.214844 23.808594 47.203125 23.824219 47.191406 C 23.882812 46.867188 23.835938 46.542969 23.785156 46.171875 C 23.761719 46.027344 23.964844 45.96875 24.003906 46.109375 C 24.085938 46.445312 24.171875 46.792969 24.136719 47.144531 C 24.136719 47.203125 24.121094 47.25 24.109375 47.3125 C 24.625 48.761719 26.042969 49.316406 27.171875 50.203125 C 27.914062 50.789062 28.335938 51.476562 28.574219 52.339844 C 29.691406 49.304688 28.898438 45.90625 25.996094 44.238281 C 25.695312 44.851562 25.25 45.378906 24.664062 45.691406 C 24.890625 46.601562 25.417969 47.117188 26.222656 47.609375 C 26.808594 47.972656 27.242188 48.425781 27.601562 49.015625 C 27.652344 49.097656 27.53125 49.171875 27.484375 49.085938 C 27.171875 48.605469 26.75 48.222656 26.257812 47.933594 C 25.957031 47.765625 25.648438 47.648438 25.382812 47.429688 C 24.867188 47.023438 24.519531 46.457031 24.386719 45.824219 C 24.242188 45.871094 24.097656 45.917969 23.941406 45.941406 C 23.871094 45.953125 23.847656 45.859375 23.90625 45.835938 C 24.074219 45.761719 24.230469 45.691406 24.375 45.605469 C 24.398438 45.558594 24.445312 45.523438 24.496094 45.511719 C 24.496094 45.5 24.496094 45.5 24.496094 45.488281 C 24.652344 44.636719 24.710938 43.78125 24.601562 42.929688 C 24.589844 42.859375 24.710938 42.847656 24.722656 42.917969 C 24.84375 43.746094 24.867188 44.550781 24.734375 45.378906 C 25.886719 44.453125 26.007812 42.929688 26.199219 41.417969 C 26.199219 41.371094 26.222656 41.335938 26.246094 41.3125 C 25.875 40.0625 25.742188 38.625 25.71875 37.363281 C 25.671875 37.386719 25.636719 37.410156 25.585938 37.433594 C 25.371094 37.519531 25.144531 37.457031 24.925781 37.363281 C 23.761719 37.9375 22.777344 39.761719 22.648438 40.988281 C 22.636719 41.046875 22.539062 41.046875 22.550781 40.988281 C 22.621094 40.097656 23.019531 39.355469 23.460938 38.609375 C 23.785156 38.058594 24.148438 37.542969 24.699219 37.242188 C 24.699219 37.242188 24.699219 37.242188 24.6875 37.242188 C 23.824219 37.542969 23.164062 38.117188 22.503906 38.742188 C 21.855469 39.355469 20.773438 40.21875 20.691406 41.144531 C 20.691406 41.203125 20.59375 41.203125 20.59375 41.144531 C 20.65625 40.21875 21.566406 39.425781 22.167969 38.789062 C 22.648438 38.273438 23.199219 37.710938 23.824219 37.339844 C 23.703125 37.289062 23.59375 37.183594 23.535156 37.0625 C 23.523438 37.027344 23.511719 36.992188 23.5 36.953125 C 23.476562 36.992188 23.4375 37.027344 23.390625 37.027344 C 22.082031 37.230469 20.90625 37.472656 19.648438 37.890625 C 18.710938 38.203125 17.859375 38.285156 16.933594 37.890625 C 16.503906 37.699219 16.082031 37.445312 15.722656 37.148438 C 13.238281 38.957031 14.582031 42.546875 15.289062 44.957031 C 15.316406 44.957031 15.328125 44.945312 15.351562 44.945312 C 15.519531 44.71875 15.820312 44.660156 16.09375 44.71875 C 16.167969 44.730469 16.25 44.765625 16.335938 44.804688 C 16.5625 44.214844 16.503906 43.421875 16.527344 42.824219 C 16.527344 42.738281 16.671875 42.738281 16.671875 42.824219 C 16.660156 43.363281 16.707031 43.902344 16.671875 44.429688 C 16.660156 44.609375 16.636719 44.789062 16.550781 44.933594 C 16.574219 44.957031 16.597656 44.972656 16.621094 44.996094 C 16.609375 44.945312 16.621094 44.898438 16.660156 44.875 C 16.933594 44.671875 17.355469 44.660156 17.679688 44.5625 C 18.085938 44.441406 18.410156 44.261719 18.746094 44.011719 C 18.640625 43.652344 18.578125 43.265625 18.542969 42.847656 C 18.542969 42.8125 18.601562 42.796875 18.613281 42.835938 C 18.769531 43.519531 18.949219 44.117188 19.308594 44.609375 C 19.191406 44.179688 19.371094 43.566406 19.492188 43.207031 C 19.515625 43.125 19.636719 43.160156 19.609375 43.242188 C 19.515625 43.664062 19.285156 44.417969 19.585938 44.804688 C 19.621094 44.839844 19.609375 44.886719 19.574219 44.921875 C 19.789062 45.140625 20.054688 45.320312 20.390625 45.464844 C 21.433594 45.929688 22.539062 46.003906 23.65625 45.871094 C 23.726562 45.859375 23.738281 45.980469 23.667969 45.992188 C 22.429688 46.277344 21.074219 46.109375 19.945312 45.5 C 19.371094 45.1875 19.023438 44.753906 18.820312 44.238281 C 18.675781 44.40625 18.507812 44.539062 18.316406 44.648438 C 18.316406 44.683594 18.300781 44.71875 18.253906 44.742188 C 17.679688 45.089844 17.222656 45.714844 16.945312 46.328125 C 17.089844 46.253906 17.234375 46.183594 17.378906 46.0625 C 17.5 45.96875 17.59375 45.871094 17.714844 45.773438 C 17.980469 45.570312 18.253906 45.464844 18.589844 45.523438 C 18.652344 45.535156 18.625 45.632812 18.566406 45.617188 C 17.917969 45.523438 17.628906 46.265625 17.125 46.484375 C 17.65625 46.613281 18.878906 46.003906 19.296875 45.96875 C 19.875 45.90625 20.414062 45.980469 20.964844 46.148438 C 21.027344 46.171875 21.003906 46.265625 20.941406 46.242188 C 19.742188 45.941406 18.878906 46.21875 17.773438 46.664062 C 17.460938 46.78125 17.210938 46.832031 16.96875 46.664062 C 16.96875 46.675781 16.984375 46.6875 16.984375 46.699219 C 16.996094 46.734375 16.984375 46.769531 16.96875 46.808594 C 17.101562 46.925781 17.1875 47.082031 17.1875 47.261719 C 17.5 47.550781 18.242188 47.3125 18.625 47.417969 C 18.960938 47.515625 19.25 47.730469 19.464844 47.996094 C 19.515625 48.054688 19.429688 48.140625 19.382812 48.078125 C 19.105469 47.765625 18.746094 47.5625 18.316406 47.550781 C 18.015625 47.539062 17.714844 47.660156 17.425781 47.609375 C 17.320312 47.597656 17.210938 47.550781 17.125 47.503906 C 17.089844 47.597656 17.03125 47.683594 16.957031 47.730469 C 17.617188 48.164062 18.109375 48.691406 18.625 49.304688 C 18.949219 49.6875 19.285156 50.082031 19.730469 50.324219 C 20.292969 50.636719 20.773438 50.550781 21.363281 50.40625 C 21.484375 50.382812 21.542969 50.515625 21.46875 50.597656 C 20.917969 51.269531 19.851562 50.921875 19.25 50.492188 C 18.578125 50 18.097656 49.328125 17.535156 48.714844 C 18.484375 50.203125 19.71875 52.0625 18.410156 53.609375 C 18.300781 53.742188 18.183594 53.839844 18.050781 53.957031 C 17.617188 54.332031 17.511719 54.390625 17.222656 54.953125 C 17.042969 55.289062 16.875 55.589844 16.585938 55.84375 C 16.527344 55.890625 16.464844 55.9375 16.40625 55.988281 C 16.40625 56 16.40625 56.011719 16.40625 56.011719 C 16.394531 56.09375 16.324219 56.105469 16.261719 56.082031 C 15.722656 56.40625 15.085938 56.515625 14.476562 56.347656 C 14.367188 56.3125 14.414062 56.167969 14.523438 56.179688 C 15.148438 56.261719 15.734375 56.132812 16.214844 55.820312 C 16.324219 55.085938 16.335938 54.367188 16.191406 53.636719 C 16.179688 53.5625 16.285156 53.527344 16.308594 53.597656 C 16.464844 54.269531 16.515625 54.941406 16.453125 55.628906 C 16.683594 55.410156 16.875 55.148438 17.019531 54.835938 C 17.28125 54.222656 17.605469 54.042969 18.0625 53.574219 C 19.660156 51.96875 17.761719 49.734375 16.886719 48.257812 C 16.851562 48.199219 16.863281 48.140625 16.898438 48.089844 C 16.839844 48.042969 16.765625 47.996094 16.695312 47.945312 C 16.585938 48.007812 16.464844 48.019531 16.335938 48.019531 C 16.273438 48.019531 16.167969 47.996094 16.117188 48.019531 C 16.058594 48.054688 16.058594 48.1875 16.023438 48.246094 C 16 48.28125 15.976562 48.320312 15.949219 48.355469 C 16.191406 48.953125 16.226562 49.613281 16.179688 50.25 C 16.179688 50.324219 16.058594 50.324219 16.058594 50.25 C 16.082031 49.640625 15.949219 49.0625 15.804688 48.476562 C 15.675781 48.546875 15.53125 48.558594 15.386719 48.535156 C 15.363281 49.015625 15.445312 49.484375 15.386719 49.964844 C 15.316406 50.527344 15.195312 51.089844 15.097656 51.65625 C 15.085938 51.714844 14.992188 51.691406 15.003906 51.632812 C 15.085938 50.996094 15.21875 50.3125 15.242188 49.664062 C 15.253906 49.253906 15.171875 48.859375 15.207031 48.464844 C 15.171875 48.4375 15.148438 48.425781 15.121094 48.402344 C 15.074219 48.464844 15.015625 48.511719 14.929688 48.523438 C 15.003906 49.085938 14.808594 49.664062 14.570312 50.203125 C 13.984375 51.523438 13.308594 52.855469 13.851562 54.320312 C 13.875 54.378906 13.777344 54.402344 13.765625 54.34375 C 13.394531 53.394531 13.503906 52.410156 13.828125 51.449219 C 14.175781 50.429688 14.796875 49.53125 14.667969 48.488281 C 14.582031 48.449219 14.511719 48.390625 14.449219 48.332031 C 14.234375 48.128906 14.101562 47.625 14.488281 47.515625 C 14.617188 47.480469 14.726562 47.597656 14.703125 47.730469 C 14.691406 47.765625 14.679688 47.789062 14.679688 47.816406 C 14.691406 47.828125 14.691406 47.828125 14.703125 47.839844 C 14.761719 47.945312 14.808594 48.042969 14.847656 48.152344 C 14.882812 48.175781 14.917969 48.1875 14.929688 48.175781 C 14.894531 48.101562 14.871094 48.019531 14.871094 47.933594 C 14.871094 47.789062 15.0625 47.707031 15.160156 47.816406 C 15.207031 47.875 15.265625 47.957031 15.316406 48.03125 C 15.375 47.984375 15.46875 48.019531 15.445312 48.113281 C 15.445312 48.128906 15.445312 48.128906 15.445312 48.140625 C 15.496094 48.152344 15.53125 48.152344 15.589844 48.113281 C 15.710938 48.042969 15.710938 47.875 15.820312 47.777344 C 15.914062 47.695312 16.035156 47.660156 16.167969 47.660156 C 16.273438 47.660156 16.515625 47.730469 16.574219 47.625 C 16.609375 47.5625 16.660156 47.550781 16.707031 47.539062 C 16.742188 47.492188 16.789062 47.441406 16.828125 47.371094 C 16.886719 47.226562 16.851562 47.070312 16.730469 46.976562 C 16.71875 46.964844 16.71875 46.949219 16.707031 46.9375 C 16.515625 46.84375 16.40625 46.566406 16.371094 46.375 C 16.335938 46.125 16.40625 45.882812 16.5625 45.679688 L 16.574219 45.667969 C 16.5625 45.667969 16.550781 45.65625 16.550781 45.65625 C 16.382812 45.546875 16.308594 45.355469 16.128906 45.234375 C 16.023438 45.164062 15.820312 45.066406 15.664062 45.078125 C 15.652344 45.257812 15.421875 45.320312 15.253906 45.320312 C 15.136719 45.320312 15.039062 45.292969 14.964844 45.425781 C 14.917969 45.511719 14.90625 45.605469 14.871094 45.691406 C 15.195312 45.8125 15.53125 45.859375 15.867188 45.96875 C 16.011719 46.015625 16.023438 46.160156 15.960938 46.253906 C 16.179688 46.304688 16.214844 46.589844 15.988281 46.675781 C 15.925781 46.699219 15.855469 46.710938 15.792969 46.734375 C 15.554688 46.964844 15.171875 47.046875 14.871094 47.179688 C 14.558594 47.3125 14.246094 47.46875 13.933594 47.609375 C 13.957031 47.648438 13.96875 47.695312 13.933594 47.730469 C 13.863281 47.816406 13.789062 47.910156 13.71875 48.007812 C 13.515625 49.316406 12.710938 50.167969 11.726562 51.078125 C 11.65625 51.152344 11.535156 51.03125 11.617188 50.972656 C 12.085938 50.527344 12.554688 50.058594 12.914062 49.53125 C 13.144531 49.183594 13.273438 48.824219 13.382812 48.4375 C 12.949219 48.953125 12.445312 49.445312 11.835938 49.652344 C 11.28125 49.832031 10.648438 49.757812 10.070312 49.746094 C 9.375 49.734375 8.679688 49.734375 7.996094 49.710938 C 7.898438 49.710938 7.898438 49.566406 7.996094 49.566406 C 9.121094 49.554688 10.40625 49.722656 11.511719 49.472656 C 12.375 49.277344 12.820312 48.617188 13.371094 48.03125 C 13.347656 48.03125 13.308594 48.03125 13.285156 48.019531 C 13.203125 47.972656 13.128906 47.933594 13.046875 47.898438 C 12.578125 48.632812 11.582031 48.847656 10.765625 48.835938 C 10.671875 48.835938 10.671875 48.691406 10.765625 48.691406 C 11.582031 48.679688 12.328125 48.414062 12.84375 47.804688 C 12.675781 47.71875 12.519531 47.648438 12.351562 47.585938 C 12.316406 47.597656 12.277344 47.597656 12.230469 47.585938 C 10.695312 47.238281 8.871094 47.132812 7.574219 48.1875 C 7.117188 48.558594 6.734375 49.027344 6.289062 49.421875 C 5.667969 49.988281 4.957031 50.492188 5.1875 51.308594 C 5.210938 51.269531 5.28125 51.246094 5.332031 51.292969 C 5.882812 51.726562 6.769531 51.726562 7.429688 51.785156 C 7.984375 51.835938 8.546875 51.871094 9.097656 51.871094 C 9.171875 51.871094 9.171875 51.992188 9.097656 51.992188 C 8.257812 52.003906 7.429688 52.003906 6.601562 51.90625 C 6.121094 51.847656 5.59375 51.835938 5.246094 51.488281 C 5.28125 51.582031 5.332031 51.667969 5.390625 51.761719 C 5.4375 51.847656 5.320312 51.941406 5.257812 51.871094 C 4.828125 51.378906 4.753906 50.730469 5.125 50.179688 C 5.355469 49.832031 5.726562 49.601562 6.027344 49.339844 C 6.410156 49.003906 6.734375 48.605469 7.09375 48.246094 C 7.695312 47.636719 8.390625 47.273438 9.121094 47.09375 C 8.871094 47.046875 8.628906 46.976562 8.378906 46.84375 C 7.753906 46.53125 7.105469 46.109375 6.734375 45.5 C 6.433594 45.007812 6.351562 44.453125 6.316406 43.890625 C 6.277344 43.867188 6.253906 43.855469 6.21875 43.832031 C 6.109375 43.757812 6.195312 43.601562 6.300781 43.640625 C 6.300781 43.53125 6.289062 43.433594 6.289062 43.328125 C 6.289062 43.207031 6.457031 43.21875 6.46875 43.328125 C 6.484375 43.472656 6.496094 43.628906 6.519531 43.769531 C 7.082031 44.117188 7.648438 44.46875 8.257812 44.71875 C 8.304688 44.742188 8.269531 44.828125 8.222656 44.816406 C 7.648438 44.585938 7.09375 44.347656 6.566406 44.046875 C 6.722656 44.898438 7.058594 45.632812 7.886719 46.148438 C 8.667969 46.640625 9.386719 46.757812 10.285156 46.769531 C 11.222656 46.792969 12.457031 46.855469 13.214844 47.515625 C 13.226562 47.453125 13.261719 47.40625 13.308594 47.382812 C 13.453125 47.324219 13.621094 47.335938 13.730469 47.441406 C 14.03125 47.25 14.34375 47.070312 14.65625 46.902344 C 14.101562 46.914062 13.550781 46.867188 13.09375 46.769531 C 13 46.890625 12.804688 46.925781 12.6875 46.792969 C 12.652344 46.746094 12.625 46.699219 12.613281 46.652344 C 12.601562 46.628906 12.601562 46.613281 12.601562 46.589844 C 12.589844 46.53125 12.613281 46.472656 12.652344 46.421875 C 11.953125 46.230469 11.199219 45.824219 10.585938 45.992188 C 10.503906 46.015625 10.464844 45.882812 10.550781 45.859375 C 11.570312 45.59375 12.519531 46.363281 13.492188 46.195312 C 13.359375 46.109375 13.25 46.015625 13.167969 45.929688 C 13.117188 45.882812 13.070312 45.835938 13.023438 45.785156 C 12.9375 45.847656 12.84375 45.859375 12.746094 45.8125 C 12.601562 45.726562 12.566406 45.535156 12.652344 45.402344 C 12.664062 45.390625 12.675781 45.378906 12.6875 45.367188 C 12.207031 44.71875 11.773438 44.011719 10.910156 43.832031 C 10.839844 43.820312 10.863281 43.710938 10.945312 43.722656 C 11.523438 43.820312 11.941406 44.105469 12.328125 44.539062 C 12.421875 44.648438 12.652344 44.984375 12.914062 45.308594 C 12.925781 45.308594 12.925781 45.308594 12.9375 45.308594 C 13.011719 45.320312 13.082031 45.378906 13.105469 45.4375 C 13.128906 45.425781 13.167969 45.425781 13.191406 45.4375 C 13.285156 45.476562 13.371094 45.511719 13.464844 45.546875 C 13.167969 45.113281 12.9375 44.609375 12.699219 44.179688 C 11.894531 42.714844 10.515625 41.765625 8.847656 41.597656 C 8.738281 41.585938 8.738281 41.429688 8.847656 41.429688 C 10.070312 41.527344 11.222656 42.03125 12.085938 42.917969 C 12.445312 43.289062 12.710938 43.710938 12.960938 44.132812 C 12.976562 44.105469 12.988281 44.082031 13.011719 44.070312 C 13.058594 44.011719 13.128906 44 13.203125 44.023438 C 13.382812 43.976562 13.5625 44.117188 13.550781 44.324219 C 13.550781 44.40625 13.503906 44.492188 13.441406 44.539062 C 13.492188 44.539062 13.527344 44.550781 13.5625 44.597656 C 13.851562 45.007812 14.1875 45.367188 14.628906 45.59375 C 14.644531 45.59375 14.644531 45.605469 14.65625 45.605469 C 14.703125 45.425781 14.847656 45.234375 14.992188 45.152344 C 15.003906 45.152344 15.003906 45.140625 15.015625 45.140625 C 14.726562 44.660156 14.511719 44.09375 14.355469 43.496094 C 13.765625 42.835938 13.359375 42.019531 12.746094 41.359375 C 12.121094 40.6875 11.355469 40.136719 10.464844 39.894531 C 9.46875 39.617188 8.773438 39.941406 7.839844 40.183594 C 7.359375 40.304688 6.757812 40.289062 6.398438 40.710938 C 6.003906 41.179688 6.316406 42.042969 6.421875 42.546875 C 6.445312 42.691406 6.253906 42.738281 6.207031 42.605469 C 5.90625 41.839844 5.75 40.757812 6.484375 40.171875 C 6.925781 39.824219 7.550781 39.882812 8.066406 39.703125 C 8.558594 39.535156 9.003906 39.378906 9.53125 39.378906 C 11.402344 39.367188 13.179688 40.832031 14.152344 42.476562 C 14.03125 41.71875 13.996094 40.949219 14.007812 40.277344 C 14.03125 39.066406 14.449219 37.652344 15.589844 37.050781 C 14.703125 36.210938 14.152344 35.058594 14.355469 33.785156 C 14.292969 33.726562 14.320312 33.605469 14.425781 33.59375 L 14.4375 33.59375 C 14.449219 33.59375 14.476562 33.59375 14.488281 33.59375 C 14.992188 33.59375 15.46875 33.703125 15.925781 33.941406 C 16 33.980469 15.9375 34.074219 15.867188 34.039062 C 15.445312 33.859375 15.003906 33.773438 14.546875 33.785156 C 14.425781 35.816406 16.09375 37.722656 18.171875 37.832031 C 19.144531 37.878906 20.078125 37.351562 20.992188 37.097656 C 21.769531 36.882812 22.609375 36.714844 23.414062 36.738281 C 23.476562 36.738281 23.511719 36.761719 23.546875 36.796875 C 23.546875 36.617188 23.59375 36.4375 23.679688 36.28125 C 23.605469 36.257812 23.535156 36.222656 23.488281 36.164062 C 23.414062 36.078125 23.367188 35.984375 23.355469 35.875 C 22.765625 36.007812 22.261719 36.355469 21.664062 36.425781 C 21.207031 36.488281 20.773438 36.390625 20.367188 36.1875 C 20.292969 36.152344 20.34375 36.03125 20.414062 36.054688 C 21.207031 36.355469 21.804688 36.222656 22.5625 35.886719 C 22.839844 35.765625 23.089844 35.660156 23.367188 35.648438 C 23.367188 35.625 23.378906 35.609375 23.378906 35.585938 C 23.390625 35.5625 23.402344 35.539062 23.414062 35.515625 C 22.046875 34.964844 20.761719 35.417969 19.347656 35.347656 C 18.457031 35.296875 17.402344 35.15625 16.777344 34.457031 C 16.71875 34.398438 16.816406 34.304688 16.875 34.363281 C 17.871094 35.382812 19.660156 35.238281 20.953125 35.082031 C 21.722656 34.988281 22.550781 34.878906 23.257812 35.203125 C 22.730469 34.734375 22.128906 34.109375 21.433594 34.328125 C 21.363281 34.351562 21.339844 34.242188 21.410156 34.21875 C 22.214844 33.941406 23.042969 34.734375 23.617188 35.226562 C 23.65625 35.191406 23.703125 35.15625 23.738281 35.117188 C 23.65625 35.046875 23.582031 34.9375 23.523438 34.84375 C 23.304688 34.519531 23.101562 34.183594 22.707031 34.0625 C 22.621094 34.039062 22.660156 33.929688 22.742188 33.941406 C 23.007812 33.980469 23.222656 34.136719 23.390625 34.339844 C 23.558594 34.542969 23.703125 34.878906 23.953125 35 C 24.015625 34.976562 24.074219 34.964844 24.121094 34.949219 C 22.933594 33.332031 21.699219 31.578125 19.886719 30.65625 C 19.863281 30.65625 19.839844 30.644531 19.816406 30.617188 C 19.5625 30.5 19.308594 30.390625 19.046875 30.292969 C 18.496094 30.113281 18.003906 30.042969 17.558594 30.113281 C 18.277344 30.367188 18.9375 30.726562 19.550781 31.183594 C 19.597656 31.21875 19.550781 31.289062 19.503906 31.253906 C 18.78125 30.773438 18.003906 30.4375 17.175781 30.210938 C 17.03125 30.269531 16.886719 30.34375 16.753906 30.4375 C 17.066406 30.464844 17.390625 30.632812 17.644531 30.773438 C 17.703125 30.8125 17.65625 30.882812 17.59375 30.859375 C 17.425781 30.773438 17.246094 30.703125 17.066406 30.65625 C 16.910156 30.617188 16.742188 30.617188 16.585938 30.582031 C 16.382812 30.761719 16.203125 31.003906 16.046875 31.304688 C 15.734375 31.878906 15.496094 32.539062 14.953125 32.945312 C 14.882812 33.007812 14.824219 32.886719 14.871094 32.828125 C 15.507812 32.035156 15.769531 30.980469 16.464844 30.246094 C 17.152344 29.539062 18.160156 29.621094 19.035156 29.875 C 19.179688 29.910156 19.324219 29.957031 19.464844 30.019531 C 19.023438 29.179688 18.820312 28.339844 18.792969 27.332031 C 18.757812 26 18.652344 24.644531 18.699219 23.3125 C 18.675781 23.226562 18.652344 23.132812 18.625 23.035156 C 18.601562 22.914062 18.78125 22.855469 18.820312 22.988281 C 18.832031 23.011719 18.84375 23.046875 18.84375 23.070312 C 18.855469 23.082031 18.867188 23.105469 18.878906 23.132812 C 18.878906 23.144531 18.878906 23.15625 18.878906 23.167969 C 19.394531 24.460938 21.21875 25.097656 21.589844 26.46875 C 21.640625 25.628906 21.820312 24.761719 22.394531 24.128906 C 23.210938 23.238281 24.265625 23.574219 25.238281 23.058594 C 25.324219 23.011719 25.40625 23.144531 25.324219 23.191406 C 24.507812 23.707031 23.460938 23.40625 22.742188 24.140625 C 21.9375 24.953125 21.855469 26.214844 21.914062 27.308594 C 22.035156 29.453125 23.019531 31.050781 24.277344 32.71875 C 24.398438 32.886719 24.148438 33.042969 24.003906 32.921875 C 22.453125 31.578125 21.664062 29.226562 21.589844 27.199219 C 21.542969 27.222656 21.46875 27.222656 21.445312 27.164062 C 21.015625 26.179688 20.605469 25.433594 19.800781 24.703125 C 19.492188 24.414062 19.167969 24.128906 18.9375 23.789062 C 19.011719 24.761719 19 25.757812 19.046875 26.730469 C 19.070312 27.402344 19.070312 28.085938 19.273438 28.734375 C 19.429688 29.261719 19.71875 29.742188 19.984375 30.234375 C 20.628906 30.546875 21.21875 30.953125 21.757812 31.433594 C 20.824219 29.839844 20.066406 28.121094 19.597656 26.394531 C 19.574219 26.3125 19.695312 26.273438 19.730469 26.359375 C 20.210938 27.90625 20.894531 29.347656 21.710938 30.738281 C 22.09375 31.386719 22.515625 32.023438 22.945312 32.648438 C 23.402344 33.175781 23.808594 33.738281 24.207031 34.304688 C 24.242188 34.304688 24.277344 34.304688 24.316406 34.328125 C 24.328125 34.328125 24.328125 34.339844 24.339844 34.351562 L 24.351562 34.351562 C 24.386719 34.363281 24.433594 34.386719 24.457031 34.421875 C 24.484375 34.433594 24.507812 34.445312 24.519531 34.472656 C 24.675781 34.675781 24.84375 34.878906 25 35.070312 C 24.976562 34.9375 24.949219 34.808594 24.890625 34.664062 C 24.746094 34.339844 24.53125 34.050781 24.316406 33.785156 C 24.207031 33.824219 24.074219 33.785156 23.992188 33.691406 C 23.859375 33.546875 23.882812 33.308594 24.0625 33.210938 C 24.253906 33.101562 24.484375 33.257812 24.484375 33.464844 C 24.484375 33.488281 24.484375 33.5 24.46875 33.523438 C 24.722656 33.761719 25.046875 34.109375 25.261719 34.484375 C 25.285156 34.328125 25.296875 34.171875 25.308594 34.015625 C 25.167969 32.695312 23.847656 31.914062 23.703125 30.582031 C 23.691406 30.5 23.847656 30.476562 23.859375 30.558594 C 23.992188 31.519531 24.890625 32.261719 25.308594 33.152344 C 25.285156 32.707031 25.203125 32.273438 25.082031 31.867188 C 24.9375 31.855469 24.792969 31.746094 24.804688 31.578125 C 24.820312 31.351562 25.058594 31.183594 25.273438 31.242188 C 25.347656 31.265625 25.394531 31.316406 25.429688 31.375 C 25.429688 31.351562 25.417969 31.339844 25.417969 31.316406 C 25.214844 30.570312 24.554688 30.066406 24.242188 29.382812 C 23.726562 28.253906 23.75 26.996094 23.929688 25.792969 C 23.941406 25.699219 24.085938 25.746094 24.074219 25.832031 C 23.953125 26.71875 23.90625 27.632812 24.121094 28.507812 C 24.300781 29.273438 24.699219 29.777344 25.167969 30.390625 C 25.707031 31.109375 25.816406 32 25.695312 32.875 C 25.742188 33.246094 25.753906 33.617188 25.753906 34.015625 C 25.753906 34.050781 25.753906 34.074219 25.753906 34.109375 C 25.886719 33.894531 26.03125 33.679688 26.175781 33.476562 C 26.125 33.476562 26.089844 33.425781 26.101562 33.378906 C 26.246094 32.933594 26.414062 32.515625 26.292969 32.035156 C 26.222656 31.734375 26.042969 31.472656 25.933594 31.183594 C 25.765625 30.726562 25.730469 30.292969 25.851562 29.828125 C 25.875 29.730469 26.007812 29.777344 25.996094 29.863281 C 25.816406 30.75 26.34375 31.277344 26.523438 32.070312 C 26.582031 32.3125 26.570312 32.539062 26.511719 32.765625 C 26.546875 32.765625 26.570312 32.765625 26.605469 32.777344 C 26.773438 32.839844 26.835938 33.007812 26.808594 33.164062 C 26.796875 33.246094 26.714844 33.292969 26.644531 33.308594 C 26.390625 33.859375 26.113281 34.375 25.886719 34.925781 C 26.269531 34.484375 26.726562 34.085938 27.230469 33.835938 C 27.21875 33.8125 27.21875 33.785156 27.230469 33.75 C 27.78125 32.789062 28.597656 32.179688 29.476562 31.542969 C 29.535156 31.507812 29.59375 31.589844 29.546875 31.640625 C 29.175781 31.949219 28.789062 32.261719 28.417969 32.585938 C 28.144531 32.828125 27.925781 33.113281 27.722656 33.402344 C 27.734375 33.402344 27.757812 33.402344 27.769531 33.414062 C 27.867188 33.4375 27.9375 33.511719 27.976562 33.59375 C 28.347656 33.378906 28.730469 33.175781 29.113281 32.945312 C 29.964844 32.441406 30.53125 31.253906 31.621094 31.253906 C 31.683594 31.253906 31.683594 31.351562 31.621094 31.351562 C 30.792969 31.375 30.46875 32.046875 29.953125 32.539062 C 29.667969 32.816406 29.332031 33.042969 28.984375 33.246094 C 28.636719 33.449219 28.296875 33.65625 27.960938 33.871094 C 27.925781 33.917969 27.878906 33.953125 27.820312 33.96875 L 27.804688 33.96875 C 27.300781 34.304688 26.824219 34.652344 26.355469 35.070312 C 26.34375 35.082031 26.332031 35.105469 26.320312 35.117188 C 26.414062 35.058594 26.523438 35 26.605469 34.949219 C 26.847656 34.820312 27.074219 34.710938 27.328125 34.640625 C 27.277344 34.640625 27.21875 34.628906 27.171875 34.628906 C 27.0625 34.613281 27.050781 34.445312 27.171875 34.445312 C 28.203125 34.472656 28.886719 33.980469 29.785156 33.632812 C 30.160156 33.488281 30.46875 33.488281 30.820312 33.691406 C 30.878906 33.726562 30.820312 33.8125 30.769531 33.773438 C 30.0625 33.390625 29.320312 34.125 28.695312 34.375 C 28.503906 34.445312 28.324219 34.519531 28.128906 34.566406 C 28.144531 34.589844 28.15625 34.613281 28.15625 34.640625 C 28.203125 34.867188 27.976562 35.011719 27.78125 34.902344 C 27.734375 34.878906 27.710938 34.832031 27.699219 34.78125 C 27.542969 34.855469 27.375 34.9375 27.21875 35.023438 C 27.328125 35.058594 27.433594 35.105469 27.519531 35.167969 C 27.53125 35.105469 27.566406 35.046875 27.652344 35.035156 C 29.175781 34.78125 30.832031 34.832031 32.210938 35.417969 C 32.414062 35 32.75 34.6875 33.109375 34.363281 C 33.832031 33.738281 34.203125 33.28125 34.15625 32.273438 C 34.128906 31.699219 34.128906 31.171875 34.503906 30.703125 C 34.707031 30.4375 34.984375 30.246094 35.222656 30.03125 C 34.753906 30.089844 34.324219 30.199219 33.890625 30.414062 C 33.832031 30.449219 33.769531 30.355469 33.832031 30.320312 C 34.308594 30.042969 34.875 29.851562 35.425781 29.839844 C 35.617188 29.648438 35.773438 29.429688 35.847656 29.144531 C 35.882812 29.023438 36.050781 29.070312 36.027344 29.191406 C 35.941406 29.753906 35.535156 30.054688 35.125 30.425781 C 34.765625 30.761719 34.492188 31.074219 34.453125 31.601562 C 34.417969 32.046875 34.574219 32.480469 34.527344 32.921875 C 34.40625 34.160156 33.085938 34.589844 32.535156 35.574219 C 32.546875 35.585938 32.558594 35.585938 32.570312 35.585938 C 32.59375 35.550781 32.644531 35.527344 32.691406 35.527344 C 34.144531 35.527344 34.996094 34.433594 35.65625 33.28125 C 36.339844 32.082031 36.652344 30.691406 36.121094 29.371094 C 36.085938 29.273438 36.230469 29.214844 36.277344 29.296875 C 37.046875 30.761719 36.664062 32.347656 35.847656 33.714844 C 35.222656 34.746094 34.324219 35.839844 33.0625 35.898438 C 33.207031 35.996094 33.339844 36.101562 33.46875 36.222656 C 34.71875 35.46875 36.0625 34.855469 37.453125 34.410156 C 37.753906 34.171875 38.019531 33.929688 38.1875 33.582031 C 38.355469 33.234375 38.390625 32.851562 38.628906 32.539062 C 38.691406 32.453125 38.808594 32.527344 38.761719 32.609375 C 38.558594 33.03125 38.511719 33.5 38.269531 33.894531 C 38.199219 34.015625 38.113281 34.136719 38.019531 34.242188 C 39.46875 33.835938 40.984375 33.59375 42.496094 33.546875 C 42.578125 33.546875 42.566406 33.667969 42.496094 33.667969 C 41.378906 33.761719 40.296875 33.929688 39.230469 34.195312 C 39.914062 34.410156 40.621094 34.820312 41.007812 35.40625 C 41.007812 35.417969 41.019531 35.417969 41.019531 35.429688 C 41.152344 35.40625 41.269531 35.394531 41.378906 35.40625 C 41.894531 35.480469 42.46875 36.019531 42.664062 36.488281 C 42.699219 36.582031 42.554688 36.65625 42.496094 36.582031 C 42.242188 36.269531 41.941406 35.875 41.582031 35.695312 C 41.449219 35.625 41.292969 35.609375 41.152344 35.636719 L 41.164062 35.648438 C 41.5 36.019531 41.535156 36.65625 41.511719 37.136719 C 41.511719 37.21875 41.378906 37.21875 41.378906 37.136719 C 41.378906 36.871094 41.34375 36.617188 41.257812 36.378906 C 41.1875 36.164062 41.066406 35.957031 41.007812 35.742188 C 40.996094 35.707031 41.007812 35.683594 41.03125 35.660156 C 40.996094 35.671875 40.945312 35.683594 40.910156 35.695312 C 40.921875 35.851562 40.800781 36.007812 40.777344 36.152344 C 40.742188 36.34375 40.753906 36.523438 40.777344 36.714844 C 40.789062 36.773438 40.695312 36.796875 40.660156 36.75 C 40.550781 36.558594 40.527344 36.34375 40.5625 36.128906 C 40.574219 36.03125 40.597656 35.910156 40.648438 35.804688 C 40.371094 35.933594 40.117188 36.128906 39.9375 36.28125 C 39.925781 36.292969 39.902344 36.292969 39.890625 36.308594 C 39.902344 36.320312 39.902344 36.320312 39.914062 36.332031 C 40.441406 36.929688 40.71875 37.566406 40.585938 38.347656 C 40.71875 38.285156 40.886719 38.25 41.019531 38.273438 C 41.113281 38.285156 41.199219 38.335938 41.269531 38.394531 C 41.367188 38.480469 41.476562 38.683594 41.644531 38.648438 C 41.679688 38.527344 41.75 38.671875 41.65625 38.707031 Z M 42.6875 37.84375 C 42.652344 37.554688 42.601562 37.253906 42.542969 36.96875 C 42.53125 36.894531 42.398438 36.90625 42.398438 36.992188 C 42.421875 37.328125 42.457031 37.664062 42.484375 38 C 42.507812 38.214844 42.484375 38.453125 42.230469 38.527344 C 42.160156 38.550781 42.097656 38.550781 42.039062 38.574219 C 42.085938 38.371094 42.0625 38.15625 42.039062 37.949219 C 42.015625 37.757812 41.992188 37.566406 41.90625 37.386719 C 41.882812 37.328125 41.796875 37.363281 41.796875 37.410156 C 41.773438 37.613281 41.824219 37.820312 41.824219 38.035156 C 41.835938 38.226562 41.808594 38.40625 41.847656 38.597656 C 41.859375 38.648438 41.894531 38.660156 41.929688 38.671875 C 41.929688 38.707031 41.941406 38.730469 41.980469 38.742188 C 42.242188 38.839844 42.589844 38.671875 42.6875 38.40625 C 42.757812 38.226562 42.710938 38.023438 42.6875 37.84375 Z M 24.375 19.160156 C 23.90625 19.074219 23.570312 18.871094 23.222656 18.582031 C 23.488281 19.410156 23.605469 20.285156 24.085938 21.03125 C 24.613281 21.859375 25.429688 22.265625 26.355469 22.484375 C 26.355469 22.242188 26.390625 22.015625 26.476562 21.796875 C 25.453125 21.390625 24.625 20.621094 24.027344 19.710938 C 23.964844 19.613281 24.109375 19.53125 24.171875 19.628906 C 24.804688 20.492188 25.636719 21.078125 26.582031 21.546875 C 26.679688 21.367188 26.796875 21.199219 26.929688 21.054688 C 26.929688 21.042969 26.929688 21.03125 26.929688 21.019531 C 26.941406 20.921875 26.941406 20.839844 26.953125 20.742188 C 26.90625 20.730469 26.871094 20.695312 26.847656 20.636719 C 26.449219 19.433594 25.429688 19.339844 24.375 19.160156 Z M 26.511719 22.554688 C 26.523438 22.566406 26.523438 22.566406 26.535156 22.578125 C 27.097656 22.507812 27.625 22.628906 28.179688 23.082031 C 28.753906 23.5625 29.246094 24.164062 29.5 24.859375 C 30.351562 24.824219 30.699219 24.320312 31.347656 23.898438 C 31.71875 23.648438 32.164062 23.527344 32.605469 23.503906 C 32.582031 23.382812 32.59375 23.25 32.617188 23.167969 C 32.089844 23.429688 31.441406 23.539062 30.878906 23.574219 C 30.804688 23.574219 30.792969 23.46875 30.867188 23.453125 C 31.214844 23.382812 31.5625 23.296875 31.898438 23.191406 C 32.164062 23.105469 32.402344 22.976562 32.65625 22.878906 C 32.65625 22.84375 32.65625 22.808594 32.65625 22.769531 C 32.65625 22.769531 32.65625 22.769531 32.65625 22.757812 C 32.644531 22.792969 32.628906 22.820312 32.582031 22.820312 C 32.042969 22.914062 31.585938 22.769531 31.070312 22.589844 C 30.195312 22.289062 29.4375 22.207031 28.539062 22.484375 C 28.453125 22.507812 28.417969 22.375 28.503906 22.351562 C 29.054688 22.160156 29.605469 22.074219 30.195312 22.160156 C 31.023438 22.265625 31.71875 22.675781 32.570312 22.628906 C 32.605469 22.628906 32.644531 22.652344 32.65625 22.675781 C 32.65625 22.664062 32.65625 22.664062 32.65625 22.652344 C 32.628906 22.472656 32.605469 22.289062 32.617188 22.109375 C 31.730469 22.21875 30.855469 21.425781 30.136719 21.007812 C 28.480469 20.046875 26.871094 20.683594 26.511719 22.554688 Z M 32.714844 21.390625 C 31.609375 20.875 30.652344 20.023438 29.773438 19.148438 C 30.003906 19.386719 30.230469 19.640625 30.457031 19.878906 C 31.117188 20.5625 31.765625 21.257812 32.714844 21.390625 Z M 30.398438 19.328125 C 30.207031 19.195312 30.027344 19.050781 29.835938 18.917969 C 30.757812 19.734375 31.683594 20.527344 32.761719 21.175781 C 32.222656 20.417969 31.070312 19.820312 30.398438 19.328125 Z M 33.433594 21.367188 C 33.433594 21.390625 33.433594 21.425781 33.433594 21.449219 C 33.433594 21.570312 33.328125 21.632812 33.21875 21.632812 C 33.207031 21.667969 33.171875 21.703125 33.121094 21.703125 C 33.074219 21.714844 33.039062 21.714844 32.992188 21.714844 C 32.992188 21.726562 32.992188 21.738281 32.980469 21.761719 C 32.835938 22.015625 32.847656 22.21875 32.894531 22.457031 C 32.953125 22.445312 33.015625 22.445312 33.074219 22.457031 C 33.207031 22.484375 33.328125 22.507812 33.433594 22.53125 C 33.351562 22.433594 33.316406 22.316406 33.328125 22.171875 C 33.339844 22.0625 33.386719 21.96875 33.445312 21.871094 C 33.433594 21.8125 33.46875 21.761719 33.519531 21.738281 L 33.519531 21.726562 C 33.625 21.523438 33.625 21.320312 33.625 21.113281 C 33.601562 21.140625 33.578125 21.175781 33.542969 21.210938 C 33.53125 21.257812 33.484375 21.320312 33.433594 21.367188 Z M 34.683594 14.800781 C 34.671875 14.648438 34.671875 14.492188 34.660156 14.335938 L 34.648438 14.324219 C 34.324219 13.949219 34.144531 13.484375 33.804688 13.109375 C 33.421875 12.691406 33.003906 12.5 32.5 12.257812 C 32.402344 12.210938 32.476562 12.078125 32.570312 12.101562 C 33.097656 12.210938 33.578125 12.5 33.949219 12.871094 C 34.191406 13.109375 34.453125 13.421875 34.648438 13.757812 C 34.648438 13.566406 34.636719 13.375 34.636719 13.183594 C 33.519531 12.175781 32.617188 10.976562 31 11.167969 C 31.933594 11.648438 31.753906 13.171875 32.871094 13.496094 C 32.929688 13.507812 32.953125 13.554688 32.964844 13.601562 C 33.601562 13.375 34.261719 14.117188 34.683594 14.800781 Z M 34.503906 10.914062 C 34.515625 10.914062 34.515625 10.914062 34.527344 10.914062 C 34.515625 10.902344 34.503906 10.890625 34.492188 10.878906 C 34.273438 10.496094 33.988281 10.316406 33.652344 10.050781 C 33.339844 9.8125 33.0625 9.546875 32.796875 9.246094 C 32.726562 9.175781 32.835938 9.054688 32.90625 9.140625 C 33.277344 9.5 33.6875 9.824219 34.144531 10.097656 C 34.203125 10.136719 34.261719 10.171875 34.324219 10.21875 C 33.507812 9.175781 32.390625 7.820312 31.09375 7.722656 C 31.597656 7.976562 31.851562 8.539062 32.113281 9.042969 C 32.65625 10.097656 33.195312 10.949219 34.503906 10.914062 Z M 34.15625 6.8125 C 34.167969 6.8125 34.167969 6.8125 34.15625 6.8125 C 33.902344 6.59375 33.675781 6.34375 33.410156 6.140625 C 33.074219 5.886719 32.703125 5.683594 32.332031 5.492188 C 32.210938 5.429688 32.292969 5.226562 32.425781 5.273438 C 32.847656 5.441406 33.242188 5.671875 33.613281 5.945312 C 33.804688 6.089844 34.023438 6.246094 34.203125 6.414062 C 34.203125 6.402344 34.203125 6.390625 34.191406 6.378906 C 33.519531 5.203125 32.304688 4.542969 31.011719 4.328125 C 31.273438 4.53125 31.429688 4.832031 31.636719 5.191406 C 32.152344 6.152344 32.917969 7.136719 34.15625 6.8125 Z M 33.433594 3.796875 C 33.433594 3.785156 33.433594 3.785156 33.433594 3.773438 C 33.015625 3.246094 32.738281 2.585938 32.628906 1.914062 C 32.617188 1.808594 32.773438 1.757812 32.796875 1.867188 C 32.90625 2.480469 33.121094 3.007812 33.457031 3.511719 C 33.496094 2.789062 33.316406 2.105469 32.992188 1.445312 C 32.824219 1.109375 32.628906 0.796875 32.476562 0.460938 C 32.4375 1.015625 32.390625 1.566406 32.4375 2.117188 C 32.5 2.886719 32.941406 3.320312 33.433594 3.796875 Z M 34.730469 6.414062 C 34.839844 6.199219 34.945312 5.972656 35.066406 5.765625 C 35.257812 5.441406 35.535156 5.117188 35.59375 4.734375 C 35.605469 4.652344 35.738281 4.675781 35.738281 4.757812 C 35.714844 5.082031 35.535156 5.335938 35.378906 5.609375 C 35.152344 6.007812 34.957031 6.414062 34.789062 6.835938 C 34.765625 6.882812 34.730469 6.90625 34.707031 6.90625 C 34.707031 6.90625 34.707031 6.90625 34.707031 6.917969 C 34.707031 6.980469 34.671875 7.015625 34.636719 7.027344 C 34.648438 7.0625 34.648438 7.085938 34.660156 7.121094 C 35.320312 6.632812 35.894531 6.140625 36.265625 5.382812 C 36.675781 4.554688 36.699219 3.65625 36.78125 2.765625 C 36.265625 3.222656 35.703125 3.546875 35.320312 4.160156 C 34.875 4.855469 34.789062 5.636719 34.730469 6.414062 Z M 35.03125 10.6875 C 35.03125 10.734375 35.03125 10.78125 35.042969 10.832031 C 35.175781 10.652344 35.34375 10.484375 35.460938 10.339844 C 35.859375 9.871094 36.300781 9.488281 36.792969 9.128906 C 36.855469 9.078125 36.925781 9.175781 36.867188 9.222656 C 36.507812 9.546875 36.160156 9.894531 35.835938 10.253906 C 35.523438 10.601562 35.304688 10.988281 35.054688 11.359375 C 35.054688 11.441406 35.054688 11.527344 35.066406 11.609375 C 36.003906 11.023438 36.820312 10.445312 37.191406 9.34375 C 37.394531 8.742188 37.429688 8.09375 37.886719 7.699219 C 37.128906 7.855469 36.601562 8.5625 36.097656 9.128906 C 35.679688 9.632812 35.332031 10.136719 35.03125 10.6875 Z M 34.765625 20.46875 C 35.125 19.820312 35.65625 19.265625 36.0625 18.644531 C 36.433594 18.066406 36.804688 17.492188 37.191406 16.914062 C 36.171875 17.984375 35.078125 18.992188 34.765625 20.46875 Z M 36.699219 18.476562 C 37.046875 17.777344 37.324219 17.058594 37.707031 16.375 C 37.226562 17.167969 36.722656 17.957031 36.21875 18.738281 C 35.761719 19.445312 35.140625 20.105469 34.777344 20.863281 C 34.753906 20.910156 34.71875 20.921875 34.683594 20.910156 C 34.660156 20.972656 34.609375 21.007812 34.550781 21.019531 C 34.597656 21.03125 34.636719 21.066406 34.609375 21.128906 C 34.503906 21.632812 35.113281 21.953125 34.945312 22.472656 C 34.816406 22.914062 34.324219 23.144531 34.15625 23.5625 C 34.238281 23.585938 34.335938 23.609375 34.417969 23.609375 C 34.609375 23.609375 34.753906 23.492188 34.933594 23.480469 L 34.945312 23.480469 C 34.945312 23.46875 34.945312 23.453125 34.933594 23.441406 C 34.921875 23.394531 34.96875 23.347656 35.007812 23.324219 C 34.996094 23.296875 34.96875 23.273438 34.957031 23.25 C 34.921875 23.191406 35.007812 23.132812 35.054688 23.179688 C 35.738281 23.957031 36.46875 24.355469 37.429688 24.714844 C 38.03125 24.929688 38.28125 25.277344 38.679688 25.664062 C 37.933594 24.234375 36.6875 23.5625 35.140625 23.082031 C 35.019531 23.046875 35.03125 22.84375 35.175781 22.855469 C 35.1875 22.855469 35.199219 22.855469 35.199219 22.855469 C 35.210938 22.808594 35.246094 22.757812 35.320312 22.734375 C 35.378906 22.710938 35.425781 22.699219 35.488281 22.6875 C 35.488281 22.578125 35.460938 22.496094 35.414062 22.421875 C 35.34375 22.410156 35.28125 22.398438 35.210938 22.375 C 35.140625 22.351562 35.140625 22.230469 35.234375 22.230469 C 35.246094 22.230469 35.257812 22.230469 35.28125 22.230469 C 35.257812 22.207031 35.246094 22.171875 35.234375 22.148438 C 35.152344 22.136719 35.113281 22.027344 35.175781 21.96875 C 35.125 21.738281 35.175781 21.511719 35.007812 21.320312 C 34.921875 21.308594 34.863281 21.246094 34.863281 21.175781 C 34.777344 21.128906 34.730469 20.996094 34.800781 20.910156 C 35.558594 20.144531 36.230469 19.433594 36.699219 18.476562 Z M 38.917969 26.09375 C 38.90625 26.058594 38.882812 26.011719 38.859375 25.976562 C 38.859375 25.976562 38.847656 25.976562 38.847656 25.960938 C 38.808594 25.9375 38.785156 25.914062 38.761719 25.890625 C 38.824219 25.960938 38.871094 26.023438 38.917969 26.09375 Z M 37.40625 25.109375 C 37.777344 25.265625 38.246094 25.472656 38.59375 25.746094 C 38.390625 25.53125 38.234375 25.277344 37.984375 25.109375 C 37.574219 24.847656 37.058594 24.773438 36.613281 24.570312 C 36.074219 24.332031 35.59375 23.984375 35.222656 23.539062 C 35.449219 24.066406 35.605469 24.5 36.242188 24.75 C 36.613281 24.894531 37.023438 24.953125 37.40625 25.109375 Z M 35.703125 26.035156 C 35.425781 25.300781 35.152344 24.570312 34.910156 23.828125 C 34.777344 23.910156 34.597656 23.945312 34.453125 23.945312 C 34.453125 23.945312 34.453125 23.945312 34.441406 23.945312 C 34.5625 24.257812 34.550781 24.617188 34.550781 24.953125 C 34.550781 25.589844 34.550781 26.226562 34.539062 26.851562 C 34.539062 26.933594 34.40625 26.933594 34.40625 26.851562 C 34.371094 25.867188 34.453125 24.859375 34.226562 23.910156 C 34.105469 23.875 33.988281 23.828125 33.867188 23.777344 C 33.988281 24.34375 33.914062 24.953125 33.84375 25.519531 C 33.832031 25.589844 33.722656 25.589844 33.722656 25.519531 C 33.78125 24.917969 33.710938 24.332031 33.675781 23.742188 C 33.566406 23.730469 33.445312 23.753906 33.328125 23.828125 L 33.328125 23.839844 C 33.121094 24.535156 32.953125 25.339844 32.546875 25.949219 C 32.269531 26.359375 31.898438 26.636719 31.777344 27.140625 C 31.695312 27.523438 31.71875 27.917969 31.765625 28.316406 C 32.28125 28.109375 32.847656 27.941406 33.398438 27.894531 C 33.433594 27.546875 33.445312 27.210938 33.457031 26.863281 C 33.457031 26.789062 33.566406 26.777344 33.578125 26.851562 C 33.640625 27.1875 33.640625 27.546875 33.601562 27.882812 C 34.394531 27.847656 35.152344 28.027344 35.738281 28.578125 C 36.386719 27.773438 36.015625 26.875 35.703125 26.035156 Z M 33.675781 22.074219 C 33.613281 22.230469 33.613281 22.386719 33.792969 22.472656 L 33.804688 22.484375 C 34.117188 22.375 34.394531 22.375 34.621094 22.628906 C 34.800781 22.351562 34.730469 22.121094 34.621094 21.882812 C 34.597656 21.882812 34.585938 21.882812 34.5625 21.871094 C 34.371094 21.773438 34.203125 21.796875 34.046875 21.929688 C 33.976562 21.980469 33.914062 22.039062 33.832031 22.074219 C 33.78125 22.085938 33.722656 22.085938 33.675781 22.074219 Z M 34.035156 20.933594 C 34 20.972656 33.9375 20.996094 33.890625 20.972656 C 33.960938 21.164062 33.949219 21.378906 33.902344 21.582031 C 33.890625 21.644531 33.855469 21.703125 33.832031 21.761719 C 33.949219 21.726562 34.117188 21.644531 34.191406 21.632812 C 34.308594 21.605469 34.417969 21.632812 34.527344 21.667969 C 34.453125 21.5 34.394531 21.320312 34.429688 21.128906 C 34.40625 21.128906 34.382812 21.113281 34.359375 21.101562 C 34.25 20.996094 34.144531 20.945312 34.035156 20.933594 Z M 32.796875 24.257812 C 32.808594 24.210938 32.859375 24.199219 32.894531 24.199219 C 32.953125 24.042969 33.015625 23.875 33.085938 23.71875 C 33.109375 23.671875 33.160156 23.648438 33.207031 23.660156 C 33.351562 23.46875 33.589844 23.441406 33.832031 23.480469 C 33.84375 23.480469 33.84375 23.480469 33.855469 23.480469 C 34.011719 23.144531 34.296875 23.011719 34.527344 22.757812 C 34.191406 22.433594 33.976562 22.734375 33.652344 22.820312 C 33.421875 22.867188 33.207031 22.734375 32.980469 22.757812 C 32.980469 22.769531 32.980469 22.78125 32.980469 22.792969 C 33.003906 22.832031 33.003906 22.890625 32.964844 22.914062 C 32.929688 23.105469 32.808594 23.324219 32.882812 23.480469 C 32.894531 23.480469 32.90625 23.492188 32.90625 23.492188 C 32.917969 23.492188 32.929688 23.480469 32.941406 23.480469 C 33.109375 23.441406 33.183594 23.695312 33.015625 23.742188 C 32.917969 23.765625 32.835938 23.789062 32.75 23.816406 C 32.078125 24.320312 31.707031 25.160156 31.25 25.855469 C 30.902344 26.394531 30.542969 26.957031 30.148438 27.460938 C 30.109375 27.558594 30.0625 27.65625 30.015625 27.738281 C 31.117188 26.71875 32.332031 25.808594 32.796875 24.257812 Z M 30.484375 26.621094 C 30.820312 26.15625 31.167969 25.675781 31.480469 25.195312 C 31.753906 24.773438 32.007812 24.367188 32.34375 24.019531 C 31.429688 24.523438 30.890625 25.519531 30.519531 26.503906 C 30.519531 26.550781 30.496094 26.585938 30.484375 26.621094 Z M 26.546875 22.734375 L 26.535156 22.734375 C 26.535156 22.746094 26.523438 22.746094 26.523438 22.757812 C 26.523438 22.746094 26.535156 22.746094 26.546875 22.734375 Z M 24.9375 15.941406 C 24.640625 15.355469 24.507812 14.648438 24.433594 14.023438 C 24.421875 13.9375 24.554688 13.925781 24.578125 14 C 24.710938 14.550781 24.855469 15.164062 25.105469 15.667969 C 25.382812 16.21875 25.800781 16.457031 26.292969 16.734375 C 26.34375 15.558594 26.175781 14.503906 25.308594 13.628906 C 24.890625 13.195312 24.386719 12.90625 24.050781 12.4375 C 24.148438 13.300781 24.207031 14.214844 24.433594 15.03125 C 24.53125 15.425781 24.710938 15.714844 24.9375 15.941406 Z M 36.339844 14.117188 C 36.253906 14.3125 36.171875 14.527344 36.074219 14.730469 C 36.734375 14.179688 37.261719 13.578125 37.5625 12.75 C 37.585938 12.667969 37.71875 12.703125 37.695312 12.785156 C 37.441406 13.578125 36.988281 14.347656 36.328125 14.863281 C 36.960938 14.574219 37.539062 14.191406 38.019531 13.640625 C 38.523438 13.050781 38.75 12.269531 39.277344 11.71875 C 38.5 11.660156 37.96875 11.863281 37.441406 12.5 C 37 13.003906 36.613281 13.519531 36.339844 14.117188 Z M 35.992188 14.921875 C 35.980469 14.957031 35.953125 14.996094 35.941406 15.019531 C 35.980469 15.007812 36.015625 14.996094 36.039062 14.984375 C 36.027344 14.972656 36.003906 14.945312 35.992188 14.921875 Z M 22.933594 18.355469 C 22.910156 18.246094 23.042969 18.199219 23.101562 18.269531 C 23.113281 18.269531 23.140625 18.269531 23.152344 18.28125 C 23.992188 18.882812 24.914062 18.726562 25.828125 19.085938 C 26.28125 19.265625 26.679688 19.566406 26.917969 19.960938 C 26.859375 19.003906 26.617188 18.042969 26.4375 17.117188 C 26.402344 17.15625 26.34375 17.179688 26.28125 17.167969 C 23.90625 16.699219 23.992188 14.046875 23.859375 12.164062 C 23.835938 12.128906 23.824219 12.078125 23.796875 12.03125 C 23.75 11.910156 23.941406 11.839844 24.003906 11.945312 C 24.421875 12.882812 25.597656 13.277344 26.125 14.191406 C 26.570312 14.957031 26.808594 15.96875 26.558594 16.832031 C 26.546875 16.867188 26.523438 16.890625 26.5 16.914062 C 26.5 16.925781 26.5 16.9375 26.5 16.949219 C 26.5 16.960938 26.5 16.976562 26.5 16.988281 C 26.523438 16.988281 26.535156 17 26.546875 17.035156 C 26.773438 17.789062 26.929688 18.582031 27.074219 19.363281 C 27.160156 19.808594 27.289062 20.296875 27.242188 20.753906 C 27.625 20.46875 28.082031 20.285156 28.5625 20.25 C 29.257812 20.203125 29.882812 20.492188 30.46875 20.828125 C 30.804688 21.019531 31.128906 21.234375 31.464844 21.414062 C 31.851562 21.617188 32.257812 21.691406 32.644531 21.847656 C 32.667969 21.8125 32.679688 21.773438 32.703125 21.738281 C 31.984375 21.703125 31.394531 21.292969 30.878906 20.765625 C 29.917969 19.808594 28.96875 18.773438 28.117188 17.71875 C 28.058594 17.648438 28.15625 17.550781 28.214844 17.621094 L 28.226562 17.636719 C 28.25 17.621094 28.273438 17.621094 28.308594 17.636719 C 29.390625 18.246094 30.398438 19.003906 31.382812 19.734375 C 31.886719 20.117188 32.523438 20.480469 32.90625 20.996094 C 32.367188 19.410156 30.496094 18.390625 29.917969 16.792969 C 29.714844 16.230469 29.703125 15.535156 30.039062 15.007812 C 30.46875 14.335938 31.25 14.40625 31.886719 14.070312 C 31.96875 14.023438 32.054688 14.15625 31.96875 14.203125 C 31.886719 14.261719 31.800781 14.296875 31.707031 14.347656 C 32.378906 15.054688 32.796875 15.953125 32.941406 16.925781 C 32.953125 17.035156 32.785156 17.082031 32.773438 16.976562 C 32.644531 16.015625 32.222656 15.1875 31.550781 14.503906 C 31.527344 14.480469 31.515625 14.453125 31.515625 14.429688 C 31.371094 14.480469 31.214844 14.515625 31.046875 14.5625 C 30.421875 14.742188 29.992188 15.199219 29.953125 15.871094 C 29.90625 16.878906 30.652344 17.636719 31.261719 18.320312 C 31.921875 19.050781 33.074219 19.976562 33.339844 21.019531 C 33.351562 21.007812 33.363281 20.996094 33.375 20.984375 C 33.484375 20.875 33.589844 20.777344 33.734375 20.742188 C 33.746094 20.742188 33.757812 20.742188 33.78125 20.730469 C 33.699219 20.105469 33.640625 19.484375 33.554688 18.859375 C 33.542969 18.773438 33.699219 18.75 33.710938 18.835938 C 33.804688 19.457031 33.914062 20.082031 34.011719 20.71875 C 34.070312 20.730469 34.128906 20.742188 34.179688 20.753906 C 34.25 19.578125 34.828125 18.460938 34.863281 17.25 C 34.886719 16.351562 34.15625 12.847656 32.570312 14.046875 C 32.5 14.09375 32.4375 14 32.488281 13.9375 C 32.535156 13.878906 32.582031 13.832031 32.644531 13.78125 C 31.453125 13.53125 31.648438 11.71875 30.589844 11.238281 C 30.566406 11.226562 30.554688 11.214844 30.554688 11.203125 C 30.484375 11.15625 30.484375 11.023438 30.578125 11 C 32.28125 10.589844 33.507812 11.480469 34.574219 12.632812 C 34.5625 12.101562 34.5625 11.585938 34.550781 11.058594 C 34.539062 11.082031 34.527344 11.09375 34.515625 11.105469 C 33.914062 11.46875 33.195312 11.144531 32.726562 10.699219 C 31.910156 9.917969 31.828125 8.132812 30.664062 7.78125 C 30.578125 7.757812 30.578125 7.675781 30.625 7.628906 C 30.625 7.628906 30.625 7.613281 30.640625 7.613281 C 31.324219 7.148438 32.246094 7.867188 32.785156 8.273438 C 33.445312 8.777344 34.023438 9.378906 34.539062 10.015625 C 34.503906 8.996094 34.417969 7.988281 34.261719 6.992188 C 34.25 7.003906 34.238281 7.015625 34.226562 7.027344 C 33.625 7.328125 32.953125 7.183594 32.425781 6.785156 C 31.574219 6.140625 31.394531 4.628906 30.386719 4.253906 L 30.375 4.253906 C 30.183594 4.242188 30.183594 3.941406 30.375 3.953125 C 31.898438 4.074219 33.242188 4.792969 34.082031 6.054688 C 33.925781 5.359375 33.710938 4.664062 33.433594 3.980469 C 32.992188 3.65625 32.546875 3.257812 32.355469 2.742188 C 32.054688 1.960938 32.257812 0.941406 32.28125 0.128906 C 32.28125 0.101562 32.292969 0.078125 32.304688 0.0664062 C 32.292969 -0.00390625 32.390625 -0.0273438 32.414062 0.0429688 C 32.449219 0.0546875 32.476562 0.078125 32.476562 0.128906 C 32.476562 0.140625 32.476562 0.164062 32.476562 0.175781 C 32.703125 0.761719 33.136719 1.265625 33.386719 1.855469 C 33.652344 2.492188 33.746094 3.101562 33.664062 3.785156 C 33.664062 3.824219 33.640625 3.835938 33.625 3.859375 C 33.960938 4.613281 34.226562 5.394531 34.417969 6.1875 C 34.480469 5.515625 34.683594 4.855469 35.007812 4.265625 C 35.449219 3.449219 36.136719 3.113281 36.792969 2.515625 C 36.832031 2.441406 36.960938 2.453125 36.976562 2.550781 C 37.128906 4.433594 36.566406 6.617188 34.707031 7.472656 C 34.851562 8.335938 34.945312 9.210938 35.007812 10.097656 C 35.355469 9.558594 35.796875 9.078125 36.242188 8.609375 C 36.757812 8.082031 37.382812 7.339844 38.1875 7.519531 C 38.199219 7.519531 38.210938 7.507812 38.222656 7.507812 C 38.292969 7.472656 38.367188 7.542969 38.367188 7.601562 C 38.378906 7.652344 38.367188 7.699219 38.304688 7.699219 C 38.292969 7.699219 38.292969 7.699219 38.28125 7.699219 C 37.597656 8.09375 37.671875 8.898438 37.453125 9.558594 C 37.335938 9.929688 37.15625 10.277344 36.925781 10.601562 C 36.496094 11.191406 35.847656 11.765625 35.125 11.933594 C 35.113281 11.933594 35.101562 11.933594 35.089844 11.933594 C 35.125 13.160156 35.125 14.382812 35.164062 15.59375 C 36.398438 14.023438 36.960938 11.046875 39.484375 11.574219 C 39.578125 11.597656 39.554688 11.753906 39.457031 11.742188 C 39.0625 12.152344 38.929688 12.703125 38.644531 13.183594 C 38.4375 13.53125 38.1875 13.84375 37.910156 14.132812 C 37.324219 14.730469 36.578125 15.210938 35.773438 15.425781 C 35.761719 15.425781 35.75 15.425781 35.738281 15.425781 C 35.59375 15.65625 35.414062 15.847656 35.175781 15.980469 C 35.175781 16.003906 35.175781 16.027344 35.175781 16.050781 C 35.320312 16.722656 35.320312 17.429688 35.234375 18.113281 C 35.210938 18.34375 35.175781 18.59375 35.125 18.847656 C 35.917969 17.695312 37.144531 16.78125 38.042969 15.738281 C 38.101562 15.667969 38.210938 15.773438 38.152344 15.847656 C 38.125 15.882812 38.101562 15.90625 38.066406 15.941406 C 38.066406 15.953125 38.066406 15.96875 38.066406 15.992188 C 37.308594 17.417969 36.914062 19.136719 35.859375 20.371094 C 36.242188 20.046875 36.625 19.722656 37.058594 19.457031 C 37.777344 19.015625 38.714844 18.953125 39.542969 19.015625 C 41.03125 19.121094 41.605469 20.683594 41.101562 21.96875 C 41.078125 22.039062 40.96875 22.003906 40.996094 21.929688 C 41.292969 21.066406 41.042969 19.722656 40.058594 19.421875 C 39.457031 19.230469 38.4375 19.339844 37.863281 19.507812 C 36.855469 19.808594 36.277344 20.863281 35.332031 21.210938 C 35.4375 21.367188 35.476562 21.558594 35.511719 21.773438 C 35.511719 21.785156 35.511719 21.785156 35.523438 21.796875 C 36.085938 21.535156 36.496094 21.03125 37.058594 20.742188 C 37.550781 20.492188 38.066406 20.394531 38.617188 20.40625 C 38.691406 20.40625 38.691406 20.503906 38.617188 20.515625 C 37.800781 20.550781 37.09375 20.839844 36.484375 21.378906 C 36.183594 21.644531 35.941406 21.859375 35.605469 21.992188 C 35.644531 22.050781 35.691406 22.097656 35.738281 22.160156 C 36.601562 21.992188 37.382812 21.332031 38.292969 21.59375 C 38.367188 21.617188 38.332031 21.714844 38.269531 21.703125 C 37.382812 21.488281 36.675781 22.277344 35.859375 22.398438 C 35.882812 22.472656 35.882812 22.554688 35.882812 22.640625 C 36.484375 22.652344 37.058594 22.960938 37.660156 23.058594 C 38.726562 23.238281 40.09375 23.144531 40.789062 22.21875 C 40.851562 22.136719 40.996094 22.207031 40.933594 22.300781 C 40.492188 23.023438 39.675781 23.285156 38.882812 23.40625 C 38.449219 23.46875 38.019531 23.492188 37.585938 23.429688 C 37.105469 23.359375 36.675781 23.167969 36.21875 23.070312 C 37.515625 23.585938 38.582031 24.824219 39.0625 26.058594 C 39.085938 26.132812 38.992188 26.15625 38.953125 26.105469 C 38.964844 26.15625 38.894531 26.191406 38.859375 26.15625 C 38.078125 25.300781 36.925781 25.316406 35.953125 24.859375 C 35.761719 24.773438 35.605469 24.644531 35.476562 24.5 C 35.785156 25.300781 36.097656 26.132812 36.265625 26.945312 C 36.398438 27.570312 36.351562 28.195312 35.859375 28.640625 C 35.917969 28.699219 35.980469 28.769531 36.039062 28.84375 C 36.085938 28.902344 35.980469 28.976562 35.929688 28.925781 C 34.527344 27.28125 31.957031 28.363281 30.53125 29.453125 C 29.796875 30.019531 29.222656 30.691406 28.71875 31.445312 C 28.359375 31.988281 28.011719 32.5625 27.496094 32.957031 C 27.351562 33.066406 27.136719 32.851562 27.242188 32.707031 C 28.453125 31.074219 29.476562 29.382812 31.371094 28.457031 C 31.453125 28.421875 31.539062 28.375 31.636719 28.339844 C 31.527344 27.679688 31.441406 27.019531 31.789062 26.441406 C 31.058594 27.210938 30.242188 27.992188 29.390625 28.613281 C 29.367188 28.640625 29.332031 28.628906 29.320312 28.601562 C 29.257812 28.589844 29.222656 28.519531 29.269531 28.457031 C 29.449219 28.265625 29.605469 28.050781 29.75 27.824219 C 29.726562 27.796875 29.714844 27.761719 29.738281 27.726562 C 29.847656 27.558594 29.953125 27.402344 30.0625 27.234375 C 30.625 26.035156 30.988281 24.617188 32.03125 23.886719 C 31.875 23.921875 31.730469 23.972656 31.585938 24.054688 C 31.347656 24.1875 31.144531 24.367188 30.925781 24.523438 C 30.507812 24.835938 30.085938 25.015625 29.570312 25.003906 C 29.617188 25.148438 29.65625 25.300781 29.667969 25.445312 C 29.824219 26.585938 29.511719 27.824219 29.066406 28.867188 C 28.609375 29.945312 27.664062 30.859375 27.445312 32.035156 C 27.410156 32.214844 27.097656 32.179688 27.121094 31.988281 C 27.207031 31.230469 27.625 30.667969 28.035156 30.042969 C 28.574219 29.214844 28.984375 28.316406 29.210938 27.34375 C 29.488281 26.132812 29.5 24.96875 28.683594 23.945312 C 28.394531 23.585938 28.035156 23.179688 27.652344 22.9375 C 27.300781 22.722656 26.953125 22.664062 26.617188 22.699219 C 26.644531 22.699219 26.667969 22.722656 26.679688 22.757812 C 26.953125 23.480469 26.953125 24.246094 26.941406 25.003906 C 26.941406 25.085938 26.824219 25.085938 26.824219 25.003906 C 26.796875 24.246094 26.761719 23.527344 26.523438 22.808594 C 26.511719 22.78125 26.523438 22.757812 26.523438 22.746094 C 26.5 22.78125 26.460938 22.792969 26.414062 22.792969 C 26.355469 22.792969 26.304688 22.78125 26.246094 22.78125 C 26.199219 22.792969 26.140625 22.808594 26.089844 22.832031 C 26.199219 23.058594 26.1875 23.371094 26.175781 23.585938 C 26.164062 23.660156 26.066406 23.660156 26.066406 23.585938 C 26.066406 23.417969 26.042969 23.25 25.996094 23.09375 C 25.96875 23.023438 25.945312 22.960938 25.910156 22.890625 C 25.828125 22.925781 25.730469 22.949219 25.648438 22.988281 C 25.539062 23.023438 25.503906 22.867188 25.597656 22.820312 C 25.683594 22.78125 25.777344 22.757812 25.863281 22.722656 L 25.863281 22.710938 C 23.941406 22.265625 23.257812 20.144531 22.933594 18.355469 Z M 12.050781 55.015625 C 11.738281 54.632812 11.546875 54.175781 11.617188 53.648438 C 11.644531 53.46875 11.691406 53.273438 11.738281 53.09375 C 11.042969 54.199219 10.371094 55.316406 10.203125 56.671875 C 10.191406 56.753906 10.058594 56.765625 10.058594 56.671875 C 10.035156 55.734375 10.417969 54.871094 10.875 54.066406 C 11.257812 53.371094 11.65625 52.664062 12.085938 51.96875 C 11.5 52.589844 10.839844 53.167969 10.191406 53.660156 C 10.203125 53.683594 10.203125 53.71875 10.191406 53.742188 C 9.902344 54.292969 9.554688 54.726562 9.351562 55.339844 C 9.171875 55.878906 9.0625 56.453125 9.050781 57.019531 C 9.039062 57.796875 9.289062 58.566406 9.050781 59.296875 C 10.371094 58.074219 11.871094 56.933594 12.050781 55.015625 Z M 5.941406 56.261719 C 5.535156 56.648438 5.222656 57.101562 4.816406 57.5 C 4.273438 58.027344 3.652344 58.457031 3.027344 58.878906 C 2.964844 58.914062 2.894531 58.820312 2.941406 58.769531 C 3.640625 58.21875 4.335938 57.65625 4.910156 56.972656 C 5.199219 56.625 5.449219 56.226562 5.796875 55.925781 C 4.597656 56.167969 3.6875 56.777344 2.894531 57.824219 C 2.269531 58.640625 1.539062 59.167969 0.652344 59.625 C 1.875 59.707031 3.039062 59.441406 4.070312 58.6875 C 4.996094 58.027344 5.4375 57.175781 5.941406 56.261719 Z M 6.121094 54.019531 C 5.796875 54.054688 5.460938 54.042969 5.125 54.007812 C 4.128906 53.886719 3.136719 53.671875 2.140625 53.503906 C 2.042969 53.492188 2.066406 53.324219 2.164062 53.335938 C 3.625 53.492188 5.34375 53.933594 6.769531 53.453125 C 6.015625 53.441406 5.332031 53.191406 4.597656 52.890625 C 3.253906 52.328125 2.089844 52.675781 0.988281 53.46875 C 2.042969 53.742188 2.714844 54.738281 3.902344 54.75 C 4.753906 54.761719 5.460938 54.4375 6.121094 54.019531 Z M 6.976562 53.453125 C 6.960938 53.453125 6.949219 53.453125 6.9375 53.453125 L 6.949219 53.46875 C 6.960938 53.46875 6.976562 53.453125 6.976562 53.453125 Z M 13.648438 56.15625 C 13.214844 55.964844 12.722656 55.6875 12.339844 55.316406 C 12.207031 57.1875 10.203125 58.628906 8.894531 59.707031 C 8.808594 59.777344 8.691406 59.671875 8.75 59.585938 C 8.738281 59.5625 8.726562 59.527344 8.75 59.492188 C 9.242188 58.484375 8.714844 57.089844 8.871094 55.988281 C 8.953125 55.398438 9.148438 54.714844 9.496094 54.175781 C 8.582031 54.8125 7.585938 55.375 6.566406 55.757812 C 6.566406 55.792969 6.542969 55.832031 6.496094 55.832031 C 6.484375 55.84375 6.46875 55.867188 6.445312 55.878906 C 6.433594 55.878906 6.433594 55.890625 6.433594 55.890625 C 5.964844 58.542969 2.691406 60.605469 0.121094 59.839844 C -0.046875 59.789062 0.0273438 59.550781 0.195312 59.574219 C 0.207031 59.574219 0.21875 59.574219 0.242188 59.574219 C 0.253906 59.5625 0.265625 59.539062 0.289062 59.527344 C 0.976562 59.167969 1.671875 58.820312 2.234375 58.265625 C 2.714844 57.796875 3.050781 57.199219 3.566406 56.753906 C 4.285156 56.144531 5.199219 55.746094 6.136719 55.6875 C 6.195312 55.652344 6.265625 55.613281 6.339844 55.589844 C 6.398438 55.566406 6.445312 55.589844 6.46875 55.613281 C 7.730469 54.980469 8.90625 54.320312 10.011719 53.429688 C 9.496094 53.636719 8.953125 53.742188 8.4375 53.648438 C 8.140625 53.597656 7.839844 53.515625 7.550781 53.394531 C 7.550781 53.40625 7.539062 53.40625 7.539062 53.417969 C 6.589844 54.222656 5.449219 54.980469 4.179688 55.039062 C 3.589844 55.074219 3.039062 54.929688 2.546875 54.617188 C 1.957031 54.246094 1.429688 53.898438 0.804688 53.574219 C 0.757812 53.585938 0.710938 53.515625 0.734375 53.46875 C 1.167969 52.628906 2.367188 52.253906 3.242188 52.195312 C 3.804688 52.160156 4.296875 52.316406 4.800781 52.542969 C 5.523438 52.855469 6.148438 53.035156 6.878906 53.082031 C 6.375 52.808594 5.929688 52.445312 5.59375 52.027344 C 5.535156 51.953125 5.628906 51.859375 5.703125 51.917969 C 6.46875 52.613281 7.71875 53.296875 8.785156 53.296875 C 9.757812 53.296875 11.019531 52.601562 11.535156 51.785156 C 11.882812 51.234375 12.097656 50.742188 12.625 50.335938 C 13.480469 49.652344 13.648438 48.929688 13.984375 47.945312 C 14.03125 47.804688 14.257812 47.828125 14.257812 47.984375 C 14.222656 48.773438 13.984375 49.53125 13.480469 50.117188 C 13.15625 50.957031 12.625 51.691406 12.253906 52.519531 C 11.929688 53.25 11.761719 53.945312 12.21875 54.605469 C 12.265625 54.617188 12.328125 54.65625 12.328125 54.726562 C 12.328125 54.738281 12.328125 54.75 12.328125 54.761719 C 12.339844 54.773438 12.351562 54.796875 12.363281 54.8125 C 12.757812 55.242188 13.324219 55.542969 13.863281 55.769531 C 14.101562 55.890625 13.898438 56.261719 13.648438 56.15625 Z M 23.078125 37.484375 C 22.285156 37.902344 21.410156 38.058594 20.667969 38.597656 C 19.828125 39.199219 19.117188 40.097656 18.867188 41.105469 C 18.867188 41.132812 18.832031 41.117188 18.84375 41.09375 C 19.070312 40.074219 19.503906 39.246094 20.304688 38.5625 C 21.015625 37.949219 22.070312 37.304688 23.03125 37.253906 C 23.140625 37.242188 23.1875 37.421875 23.078125 37.484375 " fill-opacity="1" fill-rule="nonzero"/></g></svg>