<svg xmlns="http://www.w3.org/2000/svg" xmlns:xlink="http://www.w3.org/1999/xlink" width="80" zoomAndPan="magnify" viewBox="0 0 60 60" height="80" preserveAspectRatio="xMidYMid meet" version="1.0"><defs><filter x="0%" y="0%" width="100%" height="100%" id="e9601e1994"><feColorMatrix values="0 0 0 0 1 0 0 0 0 1 0 0 0 0 1 0 0 0 1 0" color-interpolation-filters="sRGB"/></filter><mask id="6c1913137e"><g filter="url(#e9601e1994)"><rect x="-6" width="72" fill="#000000" y="-6" height="72" fill-opacity="0.43"/></g></mask><clipPath id="b14e96163b"><path d="M 0.363281 0 L 41.371094 0 L 41.371094 57.621094 L 0.363281 57.621094 Z M 0.363281 0 " clip-rule="nonzero"/></clipPath><clipPath id="ba695626b5"><rect x="0" width="42" y="0" height="58"/></clipPath></defs><g mask="url(#6c1913137e)"><g transform="matrix(1, 0, 0, 1, 1, -0.000000000000001479)"><g clip-path="url(#ba695626b5)"><g clip-path="url(#b14e96163b)"><path fill="#ffffff" d="M 4.78125 21.152344 C 4.734375 21.105469 4.652344 21.164062 4.6875 21.222656 C 4.839844 21.464844 4.964844 21.738281 5.035156 22.015625 C 5.101562 22.304688 5.078125 22.59375 5.113281 22.878906 C 5.125 22.960938 5.230469 22.984375 5.253906 22.902344 L 5.253906 22.890625 C 5.277344 22.890625 5.300781 22.890625 5.308594 22.878906 C 6.152344 22.398438 6.277344 20.5625 5.253906 20.21875 C 5.148438 20.183594 5.058594 20.308594 5.113281 20.402344 C 5.195312 20.550781 5.300781 20.609375 5.425781 20.738281 C 5.644531 20.957031 5.703125 21.222656 5.703125 21.519531 C 5.703125 21.96875 5.609375 22.351562 5.300781 22.660156 C 5.367188 22.132812 5.089844 21.53125 4.78125 21.152344 Z M 11.695312 43.554688 C 11.773438 43.589844 11.867188 43.496094 11.785156 43.429688 C 11.671875 43.324219 11.53125 43.242188 11.40625 43.140625 C 11.292969 43.035156 11.175781 42.921875 11.070312 42.804688 C 11.015625 42.75 10.933594 42.828125 10.980469 42.898438 C 11.1875 43.128906 11.417969 43.417969 11.695312 43.554688 Z M 10.644531 40.535156 C 10.679688 40.617188 10.785156 40.582031 10.773438 40.5 C 10.714844 40.074219 10.347656 39.820312 10.082031 39.519531 C 9.644531 39.027344 9.402344 38.460938 9.226562 37.816406 C 9.195312 37.675781 8.996094 37.734375 9.019531 37.875 C 9.101562 38.367188 9.308594 38.851562 9.597656 39.257812 C 9.917969 39.707031 10.449219 40.003906 10.644531 40.535156 Z M 26.089844 7.980469 C 26.042969 8.234375 25.9375 8.613281 26.054688 8.855469 C 26.078125 8.890625 26.132812 8.878906 26.144531 8.84375 C 26.179688 8.730469 26.15625 8.601562 26.15625 8.476562 C 26.15625 8.3125 26.167969 8.164062 26.203125 8.015625 C 26.214844 7.933594 26.113281 7.898438 26.089844 7.980469 Z M 25.9375 19.757812 C 26.25 19.054688 26.433594 18.328125 26.457031 17.554688 C 26.480469 16.65625 26.042969 15.710938 26.398438 14.847656 C 26.433594 14.777344 26.320312 14.722656 26.273438 14.777344 C 25.8125 15.226562 26.007812 15.851562 26.113281 16.414062 C 26.320312 17.53125 26.191406 18.640625 25.800781 19.699219 C 25.765625 19.78125 25.902344 19.847656 25.9375 19.757812 Z M 19.921875 16.886719 C 19.933594 16.933594 20.003906 16.945312 20.027344 16.898438 C 20.152344 16.644531 20.085938 16.253906 20.0625 15.976562 C 20.050781 15.898438 19.933594 15.898438 19.933594 15.976562 C 19.933594 16.140625 19.933594 16.300781 19.921875 16.460938 C 19.921875 16.601562 19.886719 16.75 19.921875 16.886719 Z M 2.09375 20.609375 C 2.453125 20.207031 2.671875 20 3.210938 20.011719 C 3.167969 20.160156 3.269531 20.355469 3.328125 20.484375 C 3.421875 20.691406 3.558594 20.863281 3.730469 21.023438 C 3.777344 21.058594 3.847656 21.015625 3.8125 20.96875 C 3.683594 20.804688 3.582031 20.621094 3.5 20.425781 C 3.453125 20.308594 3.453125 20.148438 3.398438 20.035156 C 3.464844 20.035156 3.523438 20.035156 3.59375 20.011719 C 3.671875 19.976562 3.777344 19.859375 3.859375 19.835938 C 3.894531 19.828125 3.949219 19.828125 3.996094 19.828125 C 4.042969 19.953125 4.089844 20.058594 4.066406 20.195312 C 4.054688 20.289062 4.179688 20.332031 4.203125 20.230469 C 4.226562 20.113281 4.238281 19.976562 4.203125 19.847656 C 4.515625 19.90625 4.859375 19.988281 4.847656 19.5625 C 4.847656 19.457031 4.699219 19.457031 4.6875 19.5625 C 4.664062 19.757812 4.042969 19.457031 3.914062 19.480469 C 3.753906 19.503906 3.777344 19.5625 3.640625 19.617188 C 3.375 19.746094 3.269531 19.6875 3.003906 19.6875 C 2.519531 19.6875 1.957031 20.023438 1.921875 20.542969 C 1.910156 20.621094 2.039062 20.679688 2.09375 20.609375 Z M 5.058594 19.457031 C 5.183594 19.457031 5.308594 19.410156 5.449219 19.433594 C 5.519531 19.445312 5.585938 19.46875 5.644531 19.492188 C 5.75 19.550781 5.65625 19.597656 5.574219 19.628906 C 5.425781 19.699219 5.242188 19.769531 5.277344 19.964844 C 5.289062 20.046875 5.414062 20.046875 5.4375 19.964844 C 5.472656 19.816406 5.691406 19.816406 5.804688 19.722656 C 5.898438 19.640625 5.957031 19.503906 5.875 19.386719 C 5.714844 19.15625 5.183594 19.113281 4.976562 19.296875 C 4.917969 19.355469 4.976562 19.457031 5.058594 19.457031 Z M 3.222656 22.914062 C 3.222656 22.925781 3.210938 22.9375 3.203125 22.960938 C 2.980469 23.226562 2.589844 23.515625 2.199219 23.628906 C 2.832031 24.171875 3.398438 24.5625 4.238281 24.710938 C 4.25 24.710938 4.273438 24.722656 4.285156 24.722656 C 5.089844 24.503906 5.886719 24.230469 6.671875 23.90625 C 6.359375 23.835938 6.046875 23.734375 5.761719 23.628906 C 5.449219 23.527344 5.125 23.433594 4.894531 23.191406 C 4.320312 23.433594 3.671875 23.339844 3.222656 22.914062 Z M 15.726562 22.777344 C 15.578125 22.9375 15.648438 23.097656 15.707031 23.273438 C 15.75 23.410156 15.589844 23.539062 15.464844 23.480469 C 15.371094 23.550781 15.253906 23.59375 15.128906 23.640625 C 15.070312 23.664062 14.980469 23.6875 14.945312 23.734375 C 14.957031 23.734375 14.957031 23.746094 14.96875 23.746094 C 14.992188 23.722656 15.023438 23.722656 15.046875 23.746094 C 15.175781 23.824219 15.3125 23.835938 15.453125 23.835938 C 15.542969 23.835938 15.636719 23.824219 15.707031 23.871094 C 15.714844 23.859375 15.726562 23.859375 15.738281 23.847656 C 16.027344 23.664062 16.269531 23.351562 16.582031 23.238281 C 16.636719 23.214844 16.707031 23.25 16.742188 23.308594 C 16.789062 23.261719 16.824219 23.214844 16.867188 23.179688 C 16.902344 23.144531 16.949219 23.132812 16.984375 23.121094 C 17.066406 22.960938 17.328125 23.007812 17.351562 23.203125 C 17.515625 23.375 17.628906 23.59375 17.757812 23.789062 C 17.8125 23.882812 17.871094 23.988281 17.941406 24.078125 C 17.917969 24.011719 17.953125 23.917969 18.054688 23.90625 C 18.21875 23.894531 18.390625 23.710938 18.492188 23.59375 C 18.539062 23.539062 18.644531 23.421875 18.621094 23.339844 C 18.597656 23.261719 18.527344 23.273438 18.472656 23.25 C 18.425781 23.226562 18.390625 23.203125 18.367188 23.15625 C 18.285156 23.132812 18.230469 23.03125 18.273438 22.9375 C 18.34375 22.800781 18.425781 22.671875 18.4375 22.511719 C 18.449219 22.429688 18.4375 22.210938 18.308594 22.210938 C 18.230469 22.210938 18.089844 22.363281 18 22.386719 C 17.871094 22.417969 17.789062 22.386719 17.6875 22.304688 C 17.6875 22.304688 17.6875 22.304688 17.675781 22.292969 C 17.664062 22.292969 17.652344 22.292969 17.628906 22.292969 C 17.492188 22.257812 17.363281 22.199219 17.226562 22.144531 C 17.007812 22.050781 16.890625 22.109375 16.742188 22.257812 C 16.636719 22.375 16.535156 22.476562 16.40625 22.523438 C 16.398438 22.59375 16.339844 22.636719 16.257812 22.636719 C 16.085938 22.636719 15.878906 22.617188 15.726562 22.777344 Z M 17.480469 27.398438 C 17.480469 27.410156 17.480469 27.410156 17.480469 27.398438 Z M 17.296875 27.328125 Z M 17.132812 27.226562 C 17.078125 27.097656 17.03125 26.972656 16.996094 26.84375 C 16.996094 27.027344 17.007812 27.214844 17.042969 27.398438 C 17.042969 27.339844 17.078125 27.269531 17.132812 27.226562 Z M 16.730469 10.03125 C 17.386719 10.492188 18.019531 11.046875 18.261719 11.816406 C 18.285156 10.792969 18.414062 9.683594 17.78125 8.820312 C 17.734375 8.761719 17.835938 8.683594 17.882812 8.742188 C 18.527344 9.488281 18.539062 10.539062 18.527344 11.515625 C 18.574219 11.449219 18.621094 11.367188 18.667969 11.285156 C 18.851562 10.917969 18.886719 10.492188 19.058594 10.125 C 19.058594 10.113281 19.046875 10.101562 19.046875 10.089844 C 19.011719 9.179688 18.414062 8.542969 18.089844 7.738281 C 17.859375 7.148438 17.6875 6.527344 17.617188 5.90625 C 17.03125 6.597656 16.753906 7.402344 16.695312 8.324219 C 16.671875 8.820312 16.835938 9.511719 16.730469 10.03125 Z M 25.375 14.410156 C 25.28125 14.304688 25.222656 14.179688 25.234375 14.042969 C 25.246094 13.984375 25.269531 13.925781 25.316406 13.902344 C 25.28125 13.878906 25.257812 13.84375 25.28125 13.789062 C 25.292969 13.765625 25.292969 13.742188 25.304688 13.71875 C 25.210938 13.855469 25.097656 13.984375 24.992188 14.085938 C 24.867188 14.226562 24.738281 14.363281 24.613281 14.480469 C 24.867188 14.398438 25.144531 14.351562 25.375 14.410156 Z M 27.574219 13.210938 C 27.5625 13.210938 27.550781 13.210938 27.550781 13.210938 C 27.65625 13.257812 27.757812 13.304688 27.851562 13.375 C 27.910156 13.28125 27.988281 13.246094 28.09375 13.246094 C 28.152344 13.210938 28.210938 13.175781 28.265625 13.152344 C 28.023438 13.175781 27.804688 13.199219 27.574219 13.210938 Z M 27.945312 13.824219 C 27.886719 13.800781 27.828125 13.789062 27.78125 13.777344 C 28.046875 13.984375 28.277344 14.226562 28.449219 14.480469 C 28.300781 14.25 28.128906 14.03125 27.945312 13.824219 Z M 28.691406 14.871094 C 28.671875 14.835938 28.648438 14.789062 28.625 14.757812 C 28.636719 14.765625 28.636719 14.777344 28.648438 14.800781 C 28.660156 14.835938 28.671875 14.859375 28.660156 14.894531 C 28.671875 14.882812 28.679688 14.871094 28.691406 14.871094 Z M 1.390625 20.449219 C 1.542969 20.378906 1.667969 20.414062 1.796875 20.507812 C 1.910156 20.597656 1.980469 20.726562 2.152344 20.726562 C 2.289062 20.726562 2.40625 20.632812 2.542969 20.609375 C 2.636719 20.585938 2.730469 20.714844 2.648438 20.785156 C 2.636719 20.792969 2.625 20.792969 2.613281 20.804688 C 2.542969 21.464844 2.742188 21.9375 3.132812 22.464844 C 3.570312 23.042969 4.089844 23.121094 4.722656 23.007812 C 4.386719 22.742188 4.113281 22.429688 3.902344 22.0625 C 3.871094 21.992188 3.960938 21.9375 4.007812 22.003906 C 4.25 22.363281 4.550781 22.660156 4.894531 22.914062 C 4.917969 22.925781 4.929688 22.949219 4.929688 22.960938 C 5.023438 22.949219 5.078125 23.042969 5.046875 23.109375 C 5.621094 23.527344 6.417969 23.558594 7.074219 23.734375 C 7.753906 23.433594 8.433594 23.089844 9.089844 22.695312 C 8.8125 22.40625 8.570312 22.0625 8.363281 21.671875 C 8.328125 21.613281 8.421875 21.566406 8.457031 21.625 C 8.675781 22.027344 8.929688 22.363281 9.21875 22.628906 C 9.21875 22.628906 9.21875 22.628906 9.226562 22.628906 C 9.367188 22.546875 9.480469 22.695312 9.4375 22.8125 C 9.710938 23.03125 10.023438 23.191406 10.335938 23.320312 C 10.425781 23.226562 10.609375 23.308594 10.632812 23.421875 C 11.832031 23.789062 13.238281 23.710938 14.53125 23.710938 C 14.542969 23.628906 14.574219 23.539062 14.621094 23.480469 C 14.632812 23.46875 14.65625 23.445312 14.667969 23.433594 C 14.253906 23.339844 13.871094 23.121094 13.5625 22.847656 C 13.503906 22.789062 13.585938 22.707031 13.652344 22.753906 C 14.046875 23.054688 14.460938 23.191406 14.921875 23.273438 C 14.945312 23.261719 14.96875 23.261719 14.980469 23.25 C 15.058594 23.214844 15.152344 23.203125 15.234375 23.15625 C 15.222656 23.132812 15.222656 23.097656 15.222656 23.078125 C 14.195312 22.8125 13.285156 21.832031 12.835938 20.921875 C 12.800781 20.863281 12.894531 20.804688 12.929688 20.863281 C 13.214844 21.347656 13.585938 21.796875 14.023438 22.15625 C 14.402344 22.464844 14.816406 22.636719 15.246094 22.835938 C 15.265625 22.742188 15.300781 22.660156 15.347656 22.59375 C 14.828125 22.339844 14.519531 21.648438 14.3125 21.175781 C 14.289062 21.117188 14.367188 21.058594 14.402344 21.117188 C 14.5625 21.441406 14.726562 21.785156 14.96875 22.050781 C 15.117188 22.222656 15.289062 22.328125 15.484375 22.417969 C 15.542969 22.375 15.601562 22.339844 15.671875 22.316406 C 15.175781 21.820312 14.875 21.222656 14.773438 20.519531 C 14.609375 19.433594 14.816406 17.984375 13.5625 17.488281 C 13.503906 17.464844 13.527344 17.371094 13.585938 17.394531 C 14.242188 17.613281 14.574219 18.179688 14.738281 18.835938 C 15.046875 20.125 14.863281 21.289062 15.902344 22.269531 C 16.003906 22.257812 16.097656 22.257812 16.199219 22.28125 C 16.257812 22.175781 16.339844 22.074219 16.429688 21.980469 C 15.992188 19.332031 16.074219 15.804688 12.71875 15.285156 C 12.628906 15.273438 12.582031 15.207031 12.570312 15.125 C 12.546875 15.171875 12.5 15.21875 12.433594 15.207031 C 12.410156 15.207031 12.398438 15.207031 12.375 15.207031 C 12.386719 15.21875 12.398438 15.238281 12.410156 15.261719 C 12.546875 15.746094 12.304688 16.148438 11.949219 16.472656 C 11.707031 16.691406 11.40625 16.863281 11.1875 17.117188 C 10.761719 17.625 10.875 18.0625 10.808594 18.640625 C 10.761719 19.101562 10.554688 19.367188 10.171875 19.597656 C 10.207031 19.652344 10.242188 19.710938 10.277344 19.769531 C 10.347656 19.871094 10.425781 19.976562 10.519531 20.066406 C 10.578125 20.125 10.484375 20.21875 10.425781 20.160156 C 10.324219 20.066406 10.230469 19.976562 10.148438 19.871094 C 10.105469 19.816406 10.058594 19.757812 10.035156 19.6875 C 9.988281 19.710938 9.953125 19.734375 9.910156 19.757812 C 10.035156 20.011719 10.160156 20.253906 10.359375 20.484375 C 10.589844 20.738281 10.839844 20.957031 11.105469 21.175781 C 11.164062 21.222656 11.082031 21.324219 11.027344 21.277344 C 10.542969 20.933594 9.917969 20.460938 9.722656 19.859375 C 9.113281 20.21875 8.675781 20.5625 8.535156 21.40625 C 8.527344 21.476562 8.421875 21.453125 8.421875 21.394531 C 8.445312 20.910156 8.605469 20.460938 8.941406 20.101562 C 9.148438 19.882812 9.414062 19.734375 9.667969 19.597656 C 9.679688 19.550781 9.722656 19.527344 9.769531 19.539062 C 10.046875 19.375 10.289062 19.179688 10.402344 18.859375 C 10.621094 18.246094 10.4375 17.636719 10.832031 17.070312 C 11.269531 16.425781 12.167969 16.195312 12.179688 15.296875 C 12.179688 15.261719 12.191406 15.226562 12.214844 15.207031 C 11.488281 15.25 10.886719 15.65625 10.300781 16.082031 C 9.757812 16.472656 9.148438 16.921875 8.734375 17.453125 C 8.273438 18.039062 8.535156 18.570312 8.445312 19.214844 C 8.410156 19.421875 8.351562 19.515625 8.296875 19.699219 C 8.15625 19.917969 8.054688 20.171875 8.019531 20.4375 C 8.066406 20.726562 8.15625 21.003906 8.285156 21.253906 C 8.328125 21.347656 8.203125 21.417969 8.144531 21.335938 C 7.753906 20.773438 7.636719 20.367188 7.914062 19.722656 C 8.296875 18.882812 7.824219 18.003906 8.433594 17.234375 C 8.941406 16.589844 9.6875 16.058594 10.359375 15.597656 C 11.015625 15.136719 11.683594 14.746094 12.5 14.871094 C 12.570312 14.882812 12.605469 14.929688 12.617188 14.976562 C 12.652344 14.90625 12.710938 14.847656 12.800781 14.859375 C 14.183594 14.953125 15.359375 15.839844 15.902344 17.105469 C 15.902344 17.117188 15.914062 17.128906 15.914062 17.152344 C 15.945312 16.554688 16.074219 15.917969 16.316406 15.34375 C 13.125 13.925781 12.488281 9.972656 13.734375 7.011719 C 13.757812 6.964844 13.792969 6.929688 13.839844 6.917969 C 13.839844 6.90625 13.828125 6.898438 13.828125 6.886719 C 13.78125 6.675781 14.101562 6.585938 14.148438 6.792969 C 14.332031 7.578125 14.53125 8.257812 15.128906 8.84375 C 15.554688 9.257812 16.085938 9.570312 16.582031 9.902344 C 16.257812 8.371094 16.453125 6.6875 17.570312 5.511719 C 17.710938 5.375 17.917969 5.582031 17.789062 5.730469 C 17.917969 6.734375 18.230469 7.542969 18.769531 8.40625 C 19.035156 8.832031 19.300781 9.246094 19.335938 9.71875 C 19.507812 9.511719 19.726562 9.351562 19.933594 9.191406 C 20.074219 9.085938 20.257812 9.328125 20.117188 9.433594 C 19.796875 9.707031 19.519531 9.949219 19.347656 10.332031 C 19.957031 10.46875 20.523438 10.722656 21.039062 11.089844 C 21.109375 11.136719 21.050781 11.253906 20.972656 11.207031 C 20.429688 10.90625 19.867188 10.675781 19.265625 10.550781 C 19.195312 10.769531 19.152344 10.988281 19.058594 11.195312 C 18.953125 11.425781 18.804688 11.585938 18.691406 11.804688 C 18.644531 11.875 18.621094 11.945312 18.585938 12.011719 C 18.746094 12.058594 18.910156 12.128906 19.070312 12.175781 C 19.335938 12.253906 19.601562 12.3125 19.867188 12.371094 C 19.945312 12.394531 19.921875 12.519531 19.84375 12.519531 C 19.425781 12.507812 18.933594 12.449219 18.539062 12.265625 C 18.527344 12.277344 18.527344 12.289062 18.515625 12.300781 C 18.460938 12.613281 18.503906 12.921875 18.550781 13.28125 C 18.574219 13.417969 18.378906 13.476562 18.34375 13.339844 C 18.261719 13.015625 18.183594 12.679688 18.21875 12.347656 C 18.21875 12.289062 18.230469 12.242188 18.242188 12.1875 C 17.746094 10.792969 16.386719 10.261719 15.300781 9.410156 C 14.585938 8.84375 14.183594 8.1875 13.953125 7.359375 C 12.882812 10.273438 13.640625 13.535156 16.429688 15.136719 C 16.71875 14.546875 17.144531 14.042969 17.710938 13.742188 C 17.492188 12.867188 16.984375 12.371094 16.210938 11.898438 C 15.648438 11.550781 15.234375 11.113281 14.886719 10.550781 C 14.839844 10.46875 14.957031 10.398438 15.003906 10.480469 C 15.300781 10.941406 15.707031 11.308594 16.175781 11.585938 C 16.464844 11.746094 16.765625 11.863281 17.019531 12.070312 C 17.515625 12.460938 17.847656 13.003906 17.976562 13.613281 C 18.113281 13.570312 18.25 13.523438 18.402344 13.5 C 18.472656 13.488281 18.492188 13.582031 18.4375 13.605469 C 18.273438 13.671875 18.125 13.742188 17.988281 13.824219 C 17.964844 13.867188 17.917969 13.902344 17.871094 13.914062 C 17.871094 13.925781 17.871094 13.925781 17.871094 13.9375 C 17.722656 14.757812 17.664062 15.574219 17.769531 16.390625 C 17.78125 16.460938 17.664062 16.472656 17.652344 16.402344 C 17.539062 15.609375 17.515625 14.835938 17.640625 14.042969 C 16.535156 14.929688 16.417969 16.390625 16.234375 17.84375 C 16.234375 17.890625 16.210938 17.925781 16.1875 17.949219 C 16.546875 19.144531 16.671875 20.53125 16.695312 21.738281 C 16.742188 21.714844 16.777344 21.695312 16.824219 21.671875 C 17.03125 21.589844 17.25 21.648438 17.457031 21.738281 C 18.574219 21.1875 19.519531 19.433594 19.648438 18.257812 C 19.65625 18.203125 19.75 18.203125 19.738281 18.257812 C 19.667969 19.113281 19.289062 19.828125 18.863281 20.542969 C 18.550781 21.070312 18.207031 21.566406 17.675781 21.855469 C 17.675781 21.855469 17.675781 21.855469 17.6875 21.855469 C 18.515625 21.566406 19.152344 21.015625 19.785156 20.414062 C 20.40625 19.828125 21.445312 18.996094 21.523438 18.109375 C 21.523438 18.050781 21.617188 18.050781 21.617188 18.109375 C 21.558594 18.996094 20.683594 19.757812 20.109375 20.367188 C 19.648438 20.863281 19.117188 21.40625 18.515625 21.761719 C 18.632812 21.808594 18.734375 21.914062 18.792969 22.027344 C 18.804688 22.0625 18.816406 22.097656 18.828125 22.132812 C 18.851562 22.097656 18.886719 22.0625 18.933594 22.0625 C 20.1875 21.867188 21.316406 21.636719 22.527344 21.234375 C 23.425781 20.933594 24.246094 20.851562 25.132812 21.234375 C 25.546875 21.417969 25.949219 21.660156 26.296875 21.945312 C 28.679688 20.207031 27.390625 16.761719 26.710938 14.445312 C 26.6875 14.445312 26.675781 14.457031 26.652344 14.457031 C 26.492188 14.675781 26.203125 14.734375 25.9375 14.675781 C 25.871094 14.664062 25.789062 14.628906 25.707031 14.59375 C 25.488281 15.160156 25.546875 15.917969 25.523438 16.496094 C 25.523438 16.578125 25.386719 16.578125 25.386719 16.496094 C 25.398438 15.976562 25.351562 15.457031 25.386719 14.953125 C 25.398438 14.777344 25.417969 14.605469 25.5 14.46875 C 25.476562 14.445312 25.453125 14.433594 25.429688 14.410156 C 25.441406 14.457031 25.429688 14.503906 25.398438 14.527344 C 25.132812 14.722656 24.726562 14.734375 24.417969 14.824219 C 24.027344 14.941406 23.714844 15.113281 23.390625 15.355469 C 23.496094 15.699219 23.554688 16.070312 23.585938 16.472656 C 23.585938 16.507812 23.53125 16.519531 23.519531 16.484375 C 23.367188 15.828125 23.195312 15.25 22.851562 14.777344 C 22.964844 15.195312 22.792969 15.78125 22.675781 16.128906 C 22.652344 16.207031 22.539062 16.171875 22.5625 16.09375 C 22.652344 15.6875 22.875 14.964844 22.585938 14.59375 C 22.550781 14.558594 22.5625 14.515625 22.597656 14.480469 C 22.390625 14.273438 22.136719 14.097656 21.8125 13.960938 C 20.808594 13.511719 19.75 13.441406 18.679688 13.570312 C 18.609375 13.582031 18.597656 13.464844 18.667969 13.453125 C 19.855469 13.175781 21.15625 13.339844 22.238281 13.925781 C 22.792969 14.226562 23.125 14.640625 23.324219 15.136719 C 23.460938 14.976562 23.621094 14.847656 23.804688 14.746094 C 23.804688 14.710938 23.816406 14.675781 23.863281 14.652344 C 24.417969 14.316406 24.855469 13.71875 25.121094 13.132812 C 24.980469 13.199219 24.84375 13.269531 24.707031 13.382812 C 24.589844 13.476562 24.496094 13.570312 24.382812 13.660156 C 24.128906 13.855469 23.863281 13.960938 23.542969 13.902344 C 23.484375 13.890625 23.507812 13.800781 23.566406 13.8125 C 24.1875 13.902344 24.464844 13.1875 24.949219 12.980469 C 24.441406 12.855469 23.265625 13.441406 22.863281 13.476562 C 22.308594 13.535156 21.789062 13.464844 21.261719 13.304688 C 21.203125 13.28125 21.226562 13.1875 21.28125 13.210938 C 22.433594 13.5 23.265625 13.234375 24.324219 12.808594 C 24.625 12.691406 24.867188 12.648438 25.097656 12.808594 C 25.097656 12.796875 25.085938 12.785156 25.085938 12.773438 C 25.074219 12.738281 25.085938 12.703125 25.097656 12.667969 C 24.96875 12.554688 24.890625 12.40625 24.890625 12.230469 C 24.589844 11.957031 23.875 12.1875 23.507812 12.082031 C 23.183594 11.988281 22.90625 11.78125 22.699219 11.527344 C 22.652344 11.472656 22.734375 11.390625 22.78125 11.449219 C 23.046875 11.746094 23.390625 11.945312 23.804688 11.957031 C 24.09375 11.96875 24.382812 11.851562 24.660156 11.898438 C 24.761719 11.910156 24.867188 11.957031 24.949219 12 C 24.980469 11.910156 25.039062 11.828125 25.109375 11.78125 C 24.476562 11.367188 24.003906 10.859375 23.507812 10.273438 C 23.195312 9.902344 22.875 9.523438 22.445312 9.292969 C 21.90625 8.992188 21.445312 9.074219 20.878906 9.210938 C 20.765625 9.234375 20.707031 9.109375 20.777344 9.027344 C 21.304688 8.382812 22.332031 8.71875 22.90625 9.132812 C 23.554688 9.605469 24.015625 10.25 24.554688 10.835938 C 23.644531 9.410156 22.457031 7.621094 23.714844 6.136719 C 23.816406 6.007812 23.933594 5.917969 24.058594 5.800781 C 24.476562 5.445312 24.578125 5.386719 24.855469 4.84375 C 25.027344 4.523438 25.1875 4.234375 25.464844 3.992188 C 25.523438 3.945312 25.582031 3.898438 25.640625 3.855469 C 25.640625 3.84375 25.640625 3.832031 25.640625 3.832031 C 25.648438 3.75 25.71875 3.738281 25.777344 3.761719 C 26.296875 3.449219 26.90625 3.347656 27.496094 3.507812 C 27.597656 3.542969 27.550781 3.679688 27.449219 3.667969 C 26.847656 3.589844 26.285156 3.714844 25.824219 4.015625 C 25.71875 4.71875 25.707031 5.410156 25.847656 6.113281 C 25.859375 6.183594 25.753906 6.214844 25.730469 6.148438 C 25.582031 5.5 25.535156 4.855469 25.59375 4.199219 C 25.375 4.40625 25.1875 4.660156 25.050781 4.960938 C 24.796875 5.546875 24.488281 5.71875 24.046875 6.171875 C 22.515625 7.714844 24.335938 9.859375 25.179688 11.277344 C 25.210938 11.332031 25.199219 11.390625 25.167969 11.4375 C 25.222656 11.484375 25.292969 11.527344 25.363281 11.574219 C 25.464844 11.515625 25.582031 11.507812 25.707031 11.507812 C 25.765625 11.507812 25.871094 11.527344 25.914062 11.507812 C 25.972656 11.472656 25.972656 11.34375 26.007812 11.285156 C 26.03125 11.253906 26.054688 11.21875 26.078125 11.183594 C 25.847656 10.605469 25.8125 9.972656 25.859375 9.363281 C 25.859375 9.292969 25.972656 9.292969 25.972656 9.363281 C 25.949219 9.949219 26.078125 10.503906 26.214844 11.066406 C 26.34375 11 26.480469 10.988281 26.617188 11.011719 C 26.640625 10.550781 26.5625 10.101562 26.617188 9.640625 C 26.6875 9.097656 26.804688 8.554688 26.894531 8.015625 C 26.90625 7.957031 27 7.980469 26.988281 8.039062 C 26.90625 8.648438 26.78125 9.304688 26.757812 9.925781 C 26.746094 10.320312 26.828125 10.699219 26.792969 11.078125 C 26.828125 11.101562 26.847656 11.113281 26.871094 11.136719 C 26.917969 11.078125 26.976562 11.035156 27.058594 11.023438 C 26.988281 10.480469 27.171875 9.925781 27.402344 9.410156 C 27.96875 8.140625 28.613281 6.863281 28.09375 5.457031 C 28.070312 5.398438 28.164062 5.375 28.175781 5.433594 C 28.53125 6.34375 28.429688 7.289062 28.117188 8.210938 C 27.78125 9.191406 27.183594 10.054688 27.308594 11.054688 C 27.390625 11.089844 27.460938 11.148438 27.519531 11.207031 C 27.726562 11.402344 27.851562 11.886719 27.484375 11.988281 C 27.355469 12.023438 27.253906 11.910156 27.277344 11.78125 C 27.289062 11.746094 27.296875 11.726562 27.296875 11.703125 C 27.289062 11.691406 27.289062 11.691406 27.277344 11.679688 C 27.21875 11.574219 27.171875 11.484375 27.136719 11.378906 C 27.101562 11.355469 27.066406 11.34375 27.058594 11.355469 C 27.089844 11.425781 27.113281 11.507812 27.113281 11.585938 C 27.113281 11.726562 26.929688 11.804688 26.835938 11.703125 C 26.792969 11.644531 26.734375 11.5625 26.6875 11.496094 C 26.628906 11.539062 26.539062 11.507812 26.5625 11.414062 C 26.5625 11.402344 26.5625 11.402344 26.5625 11.390625 C 26.515625 11.378906 26.480469 11.378906 26.421875 11.414062 C 26.308594 11.484375 26.308594 11.644531 26.203125 11.738281 C 26.113281 11.816406 25.996094 11.851562 25.871094 11.851562 C 25.765625 11.851562 25.535156 11.78125 25.476562 11.886719 C 25.441406 11.945312 25.398438 11.957031 25.351562 11.96875 C 25.316406 12.011719 25.269531 12.058594 25.234375 12.128906 C 25.179688 12.265625 25.210938 12.417969 25.328125 12.507812 C 25.339844 12.519531 25.339844 12.53125 25.351562 12.542969 C 25.535156 12.636719 25.640625 12.898438 25.671875 13.085938 C 25.707031 13.328125 25.640625 13.558594 25.488281 13.753906 L 25.476562 13.765625 C 25.488281 13.765625 25.5 13.777344 25.5 13.777344 C 25.660156 13.878906 25.730469 14.066406 25.902344 14.179688 C 26.007812 14.25 26.203125 14.339844 26.355469 14.328125 C 26.363281 14.15625 26.585938 14.097656 26.746094 14.097656 C 26.859375 14.097656 26.953125 14.121094 27.023438 13.996094 C 27.066406 13.914062 27.078125 13.824219 27.113281 13.742188 C 26.804688 13.625 26.480469 13.582031 26.15625 13.476562 C 26.019531 13.429688 26.007812 13.292969 26.066406 13.199219 C 25.859375 13.152344 25.824219 12.878906 26.042969 12.796875 C 26.101562 12.773438 26.167969 12.761719 26.226562 12.738281 C 26.457031 12.519531 26.828125 12.4375 27.113281 12.3125 C 27.414062 12.1875 27.714844 12.035156 28.011719 11.898438 C 27.988281 11.863281 27.980469 11.816406 28.011719 11.78125 C 28.082031 11.703125 28.152344 11.609375 28.21875 11.515625 C 28.417969 10.261719 29.1875 9.441406 30.132812 8.566406 C 30.203125 8.5 30.316406 8.613281 30.238281 8.671875 C 29.789062 9.097656 29.339844 9.546875 28.992188 10.054688 C 28.773438 10.386719 28.648438 10.734375 28.542969 11.101562 C 28.957031 10.605469 29.441406 10.132812 30.03125 9.9375 C 30.558594 9.765625 31.171875 9.835938 31.722656 9.847656 C 32.390625 9.859375 33.058594 9.859375 33.71875 9.882812 C 33.808594 9.882812 33.808594 10.019531 33.71875 10.019531 C 32.632812 10.03125 31.402344 9.871094 30.339844 10.113281 C 29.511719 10.296875 29.085938 10.929688 28.554688 11.496094 C 28.578125 11.496094 28.613281 11.496094 28.636719 11.507812 C 28.714844 11.550781 28.785156 11.585938 28.867188 11.621094 C 29.316406 10.917969 30.273438 10.710938 31.054688 10.722656 C 31.148438 10.722656 31.148438 10.859375 31.054688 10.859375 C 30.273438 10.871094 29.558594 11.125 29.0625 11.714844 C 29.222656 11.792969 29.371094 11.863281 29.535156 11.921875 C 29.570312 11.910156 29.601562 11.910156 29.648438 11.921875 C 31.125 12.253906 32.875 12.359375 34.121094 11.34375 C 34.558594 10.988281 34.925781 10.539062 35.355469 10.15625 C 35.953125 9.617188 36.632812 9.132812 36.414062 8.347656 C 36.390625 8.382812 36.320312 8.40625 36.277344 8.359375 C 35.746094 7.945312 34.894531 7.945312 34.257812 7.886719 C 33.730469 7.839844 33.1875 7.808594 32.65625 7.808594 C 32.589844 7.808594 32.589844 7.691406 32.65625 7.691406 C 33.464844 7.679688 34.257812 7.679688 35.054688 7.773438 C 35.515625 7.828125 36.023438 7.839844 36.355469 8.175781 C 36.320312 8.082031 36.277344 8.003906 36.21875 7.910156 C 36.171875 7.828125 36.289062 7.738281 36.34375 7.808594 C 36.761719 8.28125 36.828125 8.902344 36.472656 9.433594 C 36.253906 9.765625 35.894531 9.984375 35.609375 10.238281 C 35.238281 10.5625 34.925781 10.941406 34.582031 11.285156 C 34.003906 11.875 33.335938 12.21875 32.632812 12.394531 C 32.875 12.4375 33.105469 12.507812 33.347656 12.636719 C 33.949219 12.933594 34.570312 13.339844 34.925781 13.925781 C 35.214844 14.398438 35.296875 14.929688 35.332031 15.46875 C 35.367188 15.492188 35.386719 15.503906 35.421875 15.527344 C 35.527344 15.597656 35.445312 15.746094 35.34375 15.710938 C 35.34375 15.816406 35.355469 15.910156 35.355469 16.011719 C 35.355469 16.128906 35.191406 16.117188 35.179688 16.011719 C 35.167969 15.875 35.15625 15.722656 35.136719 15.585938 C 34.59375 15.25 34.050781 14.917969 33.464844 14.675781 C 33.417969 14.652344 33.453125 14.570312 33.5 14.582031 C 34.050781 14.800781 34.582031 15.03125 35.089844 15.320312 C 34.9375 14.503906 34.617188 13.800781 33.820312 13.304688 C 33.070312 12.832031 32.378906 12.714844 31.515625 12.703125 C 30.617188 12.679688 29.429688 12.625 28.703125 11.988281 C 28.691406 12.046875 28.660156 12.09375 28.613281 12.117188 C 28.472656 12.175781 28.3125 12.164062 28.210938 12.058594 C 27.921875 12.242188 27.621094 12.417969 27.320312 12.578125 C 27.851562 12.566406 28.382812 12.613281 28.820312 12.703125 C 28.910156 12.589844 29.097656 12.554688 29.210938 12.679688 C 29.246094 12.726562 29.269531 12.773438 29.28125 12.820312 C 29.292969 12.84375 29.292969 12.855469 29.292969 12.878906 C 29.304688 12.933594 29.28125 12.992188 29.246094 13.039062 C 29.914062 13.222656 30.640625 13.613281 31.226562 13.453125 C 31.308594 13.429688 31.34375 13.558594 31.261719 13.582031 C 30.285156 13.835938 29.371094 13.097656 28.441406 13.257812 C 28.566406 13.339844 28.671875 13.429688 28.75 13.511719 C 28.796875 13.558594 28.84375 13.605469 28.890625 13.648438 C 28.96875 13.59375 29.0625 13.582031 29.152344 13.625 C 29.292969 13.707031 29.328125 13.890625 29.246094 14.019531 C 29.234375 14.03125 29.222656 14.042969 29.210938 14.054688 C 29.671875 14.675781 30.085938 15.355469 30.917969 15.527344 C 30.984375 15.539062 30.964844 15.644531 30.882812 15.632812 C 30.328125 15.539062 29.925781 15.261719 29.558594 14.847656 C 29.464844 14.746094 29.246094 14.421875 28.992188 14.109375 C 28.980469 14.109375 28.980469 14.109375 28.96875 14.109375 C 28.902344 14.097656 28.832031 14.042969 28.808594 13.984375 C 28.785156 13.996094 28.75 13.996094 28.726562 13.984375 C 28.636719 13.949219 28.554688 13.914062 28.460938 13.878906 C 28.75 14.296875 28.96875 14.777344 29.199219 15.195312 C 29.972656 16.601562 31.296875 17.511719 32.898438 17.671875 C 33.003906 17.683594 33.003906 17.832031 32.898438 17.832031 C 31.722656 17.742188 30.617188 17.257812 29.789062 16.402344 C 29.441406 16.046875 29.1875 15.644531 28.945312 15.238281 C 28.933594 15.261719 28.921875 15.285156 28.902344 15.296875 C 28.855469 15.355469 28.785156 15.367188 28.714844 15.34375 C 28.542969 15.390625 28.371094 15.25 28.382812 15.054688 C 28.382812 14.976562 28.429688 14.894531 28.484375 14.847656 C 28.441406 14.847656 28.40625 14.835938 28.371094 14.789062 C 28.09375 14.398438 27.769531 14.054688 27.34375 13.835938 C 27.332031 13.835938 27.332031 13.824219 27.320312 13.824219 C 27.277344 13.996094 27.136719 14.179688 27 14.261719 C 26.988281 14.261719 26.988281 14.273438 26.976562 14.273438 C 27.253906 14.734375 27.460938 15.273438 27.609375 15.851562 C 28.175781 16.484375 28.566406 17.269531 29.152344 17.902344 C 29.753906 18.546875 30.492188 19.078125 31.34375 19.308594 C 32.300781 19.574219 32.96875 19.261719 33.867188 19.03125 C 34.328125 18.914062 34.90625 18.925781 35.25 18.523438 C 35.628906 18.074219 35.332031 17.246094 35.226562 16.761719 C 35.203125 16.621094 35.386719 16.578125 35.433594 16.703125 C 35.722656 17.441406 35.871094 18.476562 35.167969 19.042969 C 34.742188 19.375 34.144531 19.320312 33.648438 19.492188 C 33.175781 19.652344 32.75 19.804688 32.242188 19.804688 C 30.445312 19.816406 28.738281 18.410156 27.804688 16.832031 C 27.921875 17.554688 27.957031 18.292969 27.945312 18.9375 C 27.921875 20.101562 27.519531 21.464844 26.421875 22.039062 C 27.277344 22.847656 27.804688 23.953125 27.609375 25.171875 C 27.667969 25.230469 27.644531 25.347656 27.539062 25.359375 L 27.527344 25.359375 C 27.519531 25.359375 27.496094 25.359375 27.484375 25.359375 C 27 25.359375 26.539062 25.253906 26.101562 25.023438 C 26.03125 24.988281 26.089844 24.898438 26.15625 24.933594 C 26.5625 25.105469 26.988281 25.183594 27.425781 25.171875 C 27.539062 23.226562 25.9375 21.394531 23.945312 21.289062 C 23.011719 21.246094 22.113281 21.75 21.238281 21.992188 C 20.488281 22.199219 19.679688 22.363281 18.910156 22.339844 C 18.851562 22.339844 18.816406 22.316406 18.78125 22.28125 C 18.78125 22.453125 18.734375 22.628906 18.65625 22.777344 C 18.722656 22.800781 18.792969 22.835938 18.839844 22.890625 C 18.910156 22.972656 18.953125 23.066406 18.964844 23.167969 C 19.53125 23.042969 20.015625 22.707031 20.589844 22.636719 C 21.03125 22.582031 21.445312 22.671875 21.835938 22.867188 C 21.90625 22.902344 21.859375 23.019531 21.789062 22.996094 C 21.03125 22.707031 20.453125 22.835938 19.726562 23.15625 C 19.460938 23.273438 19.21875 23.375 18.953125 23.386719 C 18.953125 23.410156 18.945312 23.421875 18.945312 23.445312 C 18.933594 23.46875 18.921875 23.492188 18.910156 23.515625 C 20.222656 24.042969 21.457031 23.605469 22.816406 23.675781 C 23.667969 23.722656 24.683594 23.859375 25.28125 24.527344 C 25.339844 24.585938 25.246094 24.679688 25.1875 24.621094 C 24.234375 23.640625 22.515625 23.78125 21.269531 23.929688 C 20.535156 24.019531 19.738281 24.125 19.058594 23.8125 C 19.566406 24.261719 20.140625 24.863281 20.808594 24.65625 C 20.878906 24.632812 20.902344 24.734375 20.832031 24.757812 C 20.0625 25.023438 19.265625 24.261719 18.710938 23.789062 C 18.679688 23.824219 18.632812 23.859375 18.597656 23.894531 C 18.679688 23.964844 18.746094 24.066406 18.804688 24.160156 C 19.011719 24.472656 19.207031 24.792969 19.589844 24.910156 C 19.667969 24.933594 19.636719 25.035156 19.554688 25.023438 C 19.300781 24.988281 19.09375 24.839844 18.933594 24.644531 C 18.769531 24.449219 18.632812 24.125 18.390625 24.011719 C 18.332031 24.03125 18.273438 24.042969 18.230469 24.054688 C 19.371094 25.613281 20.558594 27.292969 22.296875 28.183594 C 22.320312 28.183594 22.34375 28.191406 22.367188 28.214844 C 22.609375 28.332031 22.851562 28.433594 23.105469 28.527344 C 23.632812 28.699219 24.105469 28.769531 24.53125 28.699219 C 23.839844 28.457031 23.207031 28.113281 22.621094 27.675781 C 22.574219 27.640625 22.621094 27.570312 22.664062 27.605469 C 23.355469 28.066406 24.105469 28.390625 24.902344 28.609375 C 25.039062 28.550781 25.179688 28.480469 25.304688 28.390625 C 25.003906 28.367188 24.695312 28.203125 24.453125 28.066406 C 24.394531 28.03125 24.441406 27.960938 24.496094 27.984375 C 24.660156 28.066406 24.832031 28.136719 25.003906 28.183594 C 25.15625 28.214844 25.316406 28.214844 25.464844 28.25 C 25.660156 28.078125 25.835938 27.847656 25.984375 27.558594 C 26.285156 27.007812 26.515625 26.371094 27.035156 25.980469 C 27.101562 25.921875 27.160156 26.039062 27.113281 26.09375 C 26.503906 26.855469 26.25 27.871094 25.582031 28.574219 C 24.925781 29.253906 23.957031 29.171875 23.113281 28.929688 C 22.976562 28.894531 22.839844 28.851562 22.699219 28.792969 C 23.125 29.597656 23.324219 30.40625 23.34375 31.375 C 23.378906 32.652344 23.484375 33.957031 23.4375 35.234375 C 23.460938 35.316406 23.484375 35.40625 23.507812 35.5 C 23.53125 35.613281 23.355469 35.671875 23.324219 35.546875 C 23.3125 35.523438 23.300781 35.488281 23.300781 35.464844 C 23.289062 35.453125 23.277344 35.429688 23.265625 35.40625 C 23.265625 35.394531 23.265625 35.382812 23.265625 35.371094 C 22.769531 34.128906 21.019531 33.515625 20.660156 32.203125 C 20.613281 33.011719 20.441406 33.839844 19.886719 34.449219 C 19.105469 35.304688 18.089844 34.980469 17.15625 35.476562 C 17.078125 35.523438 16.996094 35.394531 17.078125 35.351562 C 17.859375 34.855469 18.863281 35.140625 19.554688 34.4375 C 20.328125 33.65625 20.40625 32.445312 20.347656 31.398438 C 20.234375 29.335938 19.289062 27.800781 18.078125 26.199219 C 17.964844 26.039062 18.207031 25.886719 18.34375 26.003906 C 19.832031 27.292969 20.589844 29.554688 20.660156 31.5 C 20.707031 31.476562 20.777344 31.476562 20.800781 31.535156 C 21.214844 32.480469 21.605469 33.195312 22.378906 33.898438 C 22.675781 34.175781 22.988281 34.449219 23.207031 34.773438 C 23.136719 33.839844 23.148438 32.882812 23.105469 31.949219 C 23.082031 31.304688 23.082031 30.648438 22.882812 30.027344 C 22.734375 29.519531 22.457031 29.058594 22.203125 28.585938 C 21.582031 28.285156 21.019531 27.894531 20.5 27.433594 C 21.398438 28.964844 22.125 30.613281 22.574219 32.273438 C 22.597656 32.351562 22.480469 32.386719 22.445312 32.308594 C 21.984375 30.820312 21.328125 29.4375 20.546875 28.101562 C 20.175781 27.476562 19.773438 26.867188 19.359375 26.269531 C 18.921875 25.761719 18.527344 25.21875 18.148438 24.679688 C 18.113281 24.679688 18.078125 24.679688 18.042969 24.65625 C 18.03125 24.65625 18.03125 24.644531 18.019531 24.632812 L 18.011719 24.632812 C 17.976562 24.621094 17.929688 24.597656 17.90625 24.5625 C 17.882812 24.550781 17.859375 24.539062 17.847656 24.515625 C 17.699219 24.320312 17.539062 24.125 17.386719 23.941406 C 17.410156 24.066406 17.433594 24.195312 17.492188 24.332031 C 17.628906 24.644531 17.835938 24.921875 18.042969 25.171875 C 18.148438 25.140625 18.273438 25.171875 18.355469 25.265625 C 18.480469 25.402344 18.460938 25.632812 18.285156 25.726562 C 18.101562 25.832031 17.882812 25.679688 17.882812 25.484375 C 17.882812 25.460938 17.882812 25.449219 17.894531 25.425781 C 17.652344 25.195312 17.339844 24.863281 17.132812 24.503906 C 17.109375 24.65625 17.097656 24.804688 17.089844 24.953125 C 17.226562 26.222656 18.492188 26.972656 18.632812 28.25 C 18.644531 28.332031 18.492188 28.355469 18.480469 28.273438 C 18.355469 27.351562 17.492188 26.636719 17.089844 25.785156 C 17.109375 26.210938 17.191406 26.625 17.308594 27.015625 C 17.445312 27.027344 17.582031 27.132812 17.570312 27.292969 C 17.558594 27.511719 17.328125 27.675781 17.121094 27.617188 C 17.054688 27.59375 17.007812 27.546875 16.972656 27.488281 C 16.972656 27.511719 16.984375 27.523438 16.984375 27.546875 C 17.179688 28.261719 17.8125 28.746094 18.113281 29.402344 C 18.609375 30.488281 18.585938 31.695312 18.414062 32.847656 C 18.402344 32.941406 18.261719 32.894531 18.273438 32.8125 C 18.390625 31.960938 18.4375 31.085938 18.230469 30.246094 C 18.054688 29.507812 17.675781 29.023438 17.226562 28.433594 C 16.707031 27.742188 16.605469 26.890625 16.71875 26.050781 C 16.671875 25.691406 16.660156 25.335938 16.660156 24.953125 C 16.660156 24.921875 16.660156 24.898438 16.660156 24.863281 C 16.535156 25.070312 16.398438 25.277344 16.257812 25.472656 C 16.304688 25.472656 16.339844 25.519531 16.328125 25.566406 C 16.1875 25.992188 16.027344 26.394531 16.144531 26.855469 C 16.210938 27.144531 16.386719 27.398438 16.488281 27.675781 C 16.648438 28.113281 16.683594 28.527344 16.570312 28.976562 C 16.546875 29.070312 16.417969 29.023438 16.429688 28.941406 C 16.605469 28.089844 16.097656 27.582031 15.925781 26.820312 C 15.867188 26.589844 15.878906 26.371094 15.9375 26.152344 C 15.902344 26.152344 15.878906 26.152344 15.84375 26.140625 C 15.683594 26.085938 15.625 25.921875 15.648438 25.773438 C 15.660156 25.691406 15.738281 25.644531 15.808594 25.632812 C 16.050781 25.105469 16.316406 24.609375 16.535156 24.078125 C 16.167969 24.503906 15.726562 24.886719 15.246094 25.128906 C 15.253906 25.152344 15.253906 25.171875 15.246094 25.207031 C 14.714844 26.128906 13.929688 26.71875 13.089844 27.328125 C 13.03125 27.363281 12.972656 27.28125 13.019531 27.238281 C 13.378906 26.9375 13.746094 26.636719 14.101562 26.324219 C 14.367188 26.09375 14.574219 25.820312 14.773438 25.542969 C 14.761719 25.542969 14.738281 25.542969 14.726562 25.53125 C 14.632812 25.507812 14.5625 25.4375 14.53125 25.359375 C 14.171875 25.566406 13.804688 25.761719 13.433594 25.980469 C 12.617188 26.464844 12.074219 27.605469 11.027344 27.605469 C 10.96875 27.605469 10.96875 27.511719 11.027344 27.511719 C 11.820312 27.488281 12.132812 26.84375 12.628906 26.371094 C 12.90625 26.105469 13.226562 25.886719 13.5625 25.691406 C 13.894531 25.496094 14.21875 25.300781 14.542969 25.09375 C 14.574219 25.046875 14.621094 25.011719 14.679688 25 L 14.691406 25 C 15.175781 24.679688 15.636719 24.34375 16.085938 23.941406 C 16.097656 23.929688 16.109375 23.90625 16.121094 23.894531 C 16.027344 23.953125 15.925781 24.011719 15.84375 24.054688 C 15.613281 24.183594 15.394531 24.285156 15.152344 24.355469 C 15.199219 24.355469 15.253906 24.367188 15.300781 24.367188 C 15.40625 24.378906 15.417969 24.539062 15.300781 24.539062 C 14.3125 24.515625 13.652344 24.988281 12.789062 25.324219 C 12.433594 25.460938 12.132812 25.460938 11.796875 25.265625 C 11.742188 25.230469 11.796875 25.152344 11.84375 25.183594 C 12.523438 25.554688 13.238281 24.851562 13.839844 24.609375 C 14.023438 24.539062 14.195312 24.472656 14.378906 24.425781 C 14.367188 24.402344 14.355469 24.378906 14.355469 24.355469 C 14.3125 24.136719 14.53125 24 14.714844 24.101562 C 14.761719 24.125 14.785156 24.171875 14.792969 24.21875 C 14.945312 24.148438 15.105469 24.066406 15.253906 23.988281 C 15.152344 23.953125 15.046875 23.90625 14.96875 23.847656 C 14.957031 23.90625 14.921875 23.964844 14.839844 23.976562 C 13.378906 24.21875 11.785156 24.171875 10.460938 23.605469 C 10.265625 24.011719 9.941406 24.308594 9.597656 24.621094 C 8.90625 25.21875 8.546875 25.65625 8.59375 26.625 C 8.617188 27.179688 8.617188 27.6875 8.261719 28.136719 C 8.066406 28.390625 7.800781 28.574219 7.570312 28.78125 C 8.019531 28.722656 8.433594 28.621094 8.847656 28.414062 C 8.90625 28.378906 8.964844 28.46875 8.90625 28.503906 C 8.445312 28.769531 7.902344 28.953125 7.375 28.964844 C 7.1875 29.148438 7.039062 29.355469 6.96875 29.632812 C 6.933594 29.75 6.773438 29.703125 6.796875 29.585938 C 6.878906 29.046875 7.269531 28.757812 7.660156 28.402344 C 8.007812 28.078125 8.273438 27.777344 8.304688 27.269531 C 8.339844 26.84375 8.191406 26.429688 8.238281 26.003906 C 8.351562 24.816406 9.621094 24.402344 10.148438 23.457031 C 10.140625 23.445312 10.128906 23.445312 10.117188 23.445312 C 10.09375 23.480469 10.046875 23.503906 10 23.503906 C 8.605469 23.503906 7.789062 24.550781 7.152344 25.65625 C 6.496094 26.808594 6.199219 28.148438 6.703125 29.414062 C 6.738281 29.507812 6.601562 29.566406 6.554688 29.484375 C 5.816406 28.078125 6.1875 26.554688 6.96875 25.242188 C 7.570312 24.25 8.433594 23.203125 9.644531 23.144531 C 9.503906 23.054688 9.378906 22.949219 9.25 22.835938 C 8.054688 23.558594 6.761719 24.148438 5.425781 24.574219 C 5.136719 24.804688 4.882812 25.035156 4.722656 25.371094 C 4.5625 25.703125 4.527344 26.074219 4.296875 26.371094 C 4.238281 26.453125 4.125 26.382812 4.167969 26.304688 C 4.363281 25.898438 4.410156 25.449219 4.640625 25.070312 C 4.710938 24.953125 4.792969 24.839844 4.882812 24.734375 C 3.488281 25.128906 2.039062 25.359375 0.585938 25.402344 C 0.503906 25.402344 0.515625 25.289062 0.585938 25.289062 C 1.65625 25.195312 2.695312 25.035156 3.71875 24.78125 C 3.0625 24.574219 2.382812 24.183594 2.015625 23.617188 C 2.015625 23.605469 2.003906 23.605469 2.003906 23.59375 C 1.875 23.617188 1.761719 23.628906 1.65625 23.617188 C 1.160156 23.550781 0.609375 23.03125 0.425781 22.582031 C 0.390625 22.488281 0.527344 22.417969 0.585938 22.488281 C 0.828125 22.789062 1.117188 23.167969 1.460938 23.339844 C 1.589844 23.410156 1.738281 23.421875 1.875 23.398438 L 1.863281 23.386719 C 1.542969 23.03125 1.507812 22.417969 1.53125 21.957031 C 1.53125 21.878906 1.65625 21.878906 1.65625 21.957031 C 1.65625 22.210938 1.691406 22.453125 1.773438 22.683594 C 1.839844 22.890625 1.957031 23.089844 2.015625 23.296875 C 2.027344 23.328125 2.015625 23.351562 1.992188 23.375 C 2.027344 23.363281 2.070312 23.351562 2.105469 23.339844 C 2.09375 23.191406 2.210938 23.042969 2.234375 22.902344 C 2.269531 22.71875 2.257812 22.546875 2.234375 22.363281 C 2.222656 22.304688 2.3125 22.28125 2.347656 22.328125 C 2.453125 22.511719 2.476562 22.71875 2.441406 22.925781 C 2.429688 23.019531 2.40625 23.132812 2.359375 23.238281 C 2.625 23.109375 2.867188 22.925781 3.039062 22.777344 C 3.050781 22.765625 3.074219 22.765625 3.085938 22.753906 C 3.074219 22.742188 3.074219 22.742188 3.0625 22.730469 C 2.554688 22.15625 2.289062 21.542969 2.417969 20.792969 C 2.289062 20.851562 2.128906 20.886719 2.003906 20.863281 C 1.910156 20.851562 1.828125 20.804688 1.761719 20.75 C 1.667969 20.667969 1.566406 20.472656 1.402344 20.507812 C 1.367188 20.621094 1.300781 20.484375 1.390625 20.449219 Z M 0.402344 21.277344 C 0.4375 21.554688 0.480469 21.84375 0.539062 22.121094 C 0.550781 22.1875 0.675781 22.175781 0.675781 22.097656 C 0.65625 21.773438 0.621094 21.453125 0.597656 21.128906 C 0.574219 20.921875 0.597656 20.691406 0.839844 20.621094 C 0.90625 20.597656 0.964844 20.597656 1.023438 20.574219 C 0.976562 20.773438 1 20.980469 1.023438 21.175781 C 1.046875 21.359375 1.070312 21.542969 1.148438 21.714844 C 1.171875 21.773438 1.253906 21.738281 1.253906 21.695312 C 1.277344 21.496094 1.230469 21.300781 1.230469 21.09375 C 1.21875 20.910156 1.242188 20.738281 1.207031 20.550781 C 1.195312 20.507812 1.160156 20.496094 1.128906 20.484375 C 1.128906 20.449219 1.117188 20.425781 1.082031 20.414062 C 0.828125 20.320312 0.492188 20.484375 0.402344 20.738281 C 0.332031 20.910156 0.378906 21.105469 0.402344 21.277344 Z M 17.988281 39.222656 C 18.4375 39.300781 18.757812 39.5 19.09375 39.773438 C 18.839844 38.980469 18.722656 38.136719 18.261719 37.425781 C 17.757812 36.628906 16.972656 36.238281 16.085938 36.03125 C 16.085938 36.261719 16.050781 36.480469 15.96875 36.6875 C 16.949219 37.078125 17.746094 37.816406 18.320312 38.691406 C 18.378906 38.785156 18.242188 38.863281 18.183594 38.773438 C 17.570312 37.941406 16.777344 37.378906 15.867188 36.929688 C 15.773438 37.101562 15.660156 37.261719 15.53125 37.402344 C 15.53125 37.414062 15.53125 37.425781 15.53125 37.4375 C 15.519531 37.527344 15.519531 37.609375 15.507812 37.699219 C 15.554688 37.710938 15.589844 37.746094 15.613281 37.804688 C 15.992188 38.957031 16.972656 39.050781 17.988281 39.222656 Z M 15.9375 35.960938 C 15.925781 35.949219 15.925781 35.949219 15.914062 35.9375 C 15.371094 36.007812 14.863281 35.890625 14.332031 35.453125 C 13.78125 34.992188 13.308594 34.417969 13.066406 33.746094 C 12.25 33.78125 11.914062 34.265625 11.292969 34.667969 C 10.933594 34.910156 10.507812 35.027344 10.082031 35.050781 C 10.105469 35.164062 10.09375 35.292969 10.070312 35.371094 C 10.578125 35.121094 11.199219 35.015625 11.742188 34.980469 C 11.808594 34.980469 11.820312 35.085938 11.753906 35.097656 C 11.417969 35.164062 11.082031 35.246094 10.761719 35.351562 C 10.507812 35.429688 10.277344 35.558594 10.035156 35.648438 C 10.035156 35.683594 10.035156 35.71875 10.035156 35.753906 C 10.035156 35.753906 10.035156 35.753906 10.035156 35.765625 C 10.046875 35.730469 10.058594 35.707031 10.105469 35.707031 C 10.621094 35.613281 11.0625 35.753906 11.554688 35.925781 C 12.398438 36.214844 13.125 36.292969 13.988281 36.03125 C 14.070312 36.007812 14.101562 36.132812 14.023438 36.15625 C 13.492188 36.339844 12.960938 36.421875 12.398438 36.339844 C 11.601562 36.238281 10.933594 35.84375 10.117188 35.890625 C 10.082031 35.890625 10.046875 35.867188 10.035156 35.84375 C 10.035156 35.855469 10.035156 35.855469 10.035156 35.867188 C 10.058594 36.042969 10.082031 36.214844 10.070312 36.386719 C 10.921875 36.285156 11.765625 37.042969 12.457031 37.445312 C 14.046875 38.367188 15.589844 37.757812 15.9375 35.960938 Z M 9.976562 37.078125 C 11.039062 37.574219 11.960938 38.390625 12.800781 39.234375 C 12.582031 39.003906 12.363281 38.761719 12.144531 38.53125 C 11.511719 37.875 10.886719 37.207031 9.976562 37.078125 Z M 12.203125 39.058594 C 12.386719 39.1875 12.558594 39.324219 12.742188 39.453125 C 11.855469 38.667969 10.96875 37.90625 9.929688 37.285156 C 10.449219 38.011719 11.554688 38.589844 12.203125 39.058594 Z M 9.285156 37.101562 C 9.285156 37.078125 9.285156 37.042969 9.285156 37.019531 C 9.285156 36.90625 9.390625 36.847656 9.492188 36.847656 C 9.503906 36.8125 9.539062 36.777344 9.585938 36.777344 C 9.632812 36.765625 9.667969 36.765625 9.710938 36.765625 C 9.710938 36.753906 9.710938 36.746094 9.722656 36.722656 C 9.863281 36.480469 9.851562 36.285156 9.804688 36.054688 C 9.746094 36.0625 9.6875 36.0625 9.632812 36.054688 C 9.503906 36.03125 9.390625 36.007812 9.285156 35.984375 C 9.367188 36.074219 9.402344 36.191406 9.390625 36.328125 C 9.378906 36.433594 9.332031 36.523438 9.273438 36.617188 C 9.285156 36.675781 9.25 36.722656 9.207031 36.746094 L 9.207031 36.753906 C 9.101562 36.953125 9.101562 37.148438 9.101562 37.34375 C 9.125 37.320312 9.148438 37.285156 9.183594 37.25 C 9.195312 37.207031 9.238281 37.148438 9.285156 37.101562 Z M 8.085938 43.40625 C 8.097656 43.554688 8.097656 43.703125 8.109375 43.855469 L 8.121094 43.867188 C 8.433594 44.222656 8.605469 44.671875 8.929688 45.03125 C 9.296875 45.433594 9.699219 45.617188 10.183594 45.847656 C 10.277344 45.894531 10.207031 46.019531 10.117188 46 C 9.609375 45.894531 9.148438 45.617188 8.789062 45.261719 C 8.558594 45.03125 8.304688 44.730469 8.121094 44.40625 C 8.121094 44.59375 8.132812 44.777344 8.132812 44.960938 C 9.207031 45.929688 10.070312 47.082031 11.625 46.898438 C 10.726562 46.4375 10.898438 44.972656 9.828125 44.660156 C 9.769531 44.648438 9.746094 44.605469 9.734375 44.558594 C 9.125 44.777344 8.492188 44.0625 8.085938 43.40625 Z M 8.261719 47.140625 C 8.25 47.140625 8.25 47.140625 8.238281 47.140625 C 8.25 47.152344 8.261719 47.160156 8.273438 47.171875 C 8.480469 47.542969 8.757812 47.714844 9.078125 47.96875 C 9.378906 48.199219 9.644531 48.453125 9.898438 48.742188 C 9.964844 48.808594 9.863281 48.925781 9.792969 48.84375 C 9.4375 48.5 9.042969 48.1875 8.605469 47.921875 C 8.546875 47.886719 8.492188 47.851562 8.433594 47.808594 C 9.21875 48.808594 10.289062 50.113281 11.53125 50.203125 C 11.050781 49.960938 10.808594 49.421875 10.554688 48.9375 C 10.035156 47.921875 9.515625 47.105469 8.261719 47.140625 Z M 8.59375 51.082031 C 8.582031 51.082031 8.582031 51.082031 8.59375 51.082031 C 8.835938 51.289062 9.054688 51.53125 9.308594 51.726562 C 9.632812 51.96875 9.988281 52.164062 10.347656 52.347656 C 10.460938 52.40625 10.378906 52.601562 10.253906 52.554688 C 9.851562 52.394531 9.46875 52.175781 9.113281 51.910156 C 8.929688 51.773438 8.722656 51.621094 8.546875 51.460938 C 8.546875 51.472656 8.546875 51.484375 8.558594 51.496094 C 9.207031 52.625 10.371094 53.257812 11.613281 53.464844 C 11.359375 53.269531 11.210938 52.980469 11.015625 52.636719 C 10.519531 51.714844 9.78125 50.769531 8.59375 51.082031 Z M 9.285156 53.972656 C 9.285156 53.984375 9.285156 53.984375 9.285156 53.996094 C 9.6875 54.503906 9.953125 55.136719 10.058594 55.78125 C 10.070312 55.886719 9.917969 55.933594 9.898438 55.828125 C 9.792969 55.242188 9.585938 54.734375 9.261719 54.25 C 9.226562 54.941406 9.402344 55.597656 9.710938 56.230469 C 9.875 56.554688 10.058594 56.855469 10.207031 57.175781 C 10.242188 56.648438 10.289062 56.117188 10.242188 55.585938 C 10.183594 54.847656 9.757812 54.433594 9.285156 53.972656 Z M 8.042969 51.460938 C 7.9375 51.667969 7.835938 51.886719 7.71875 52.082031 C 7.535156 52.394531 7.269531 52.707031 7.210938 53.074219 C 7.199219 53.15625 7.074219 53.132812 7.074219 53.050781 C 7.097656 52.738281 7.269531 52.496094 7.417969 52.234375 C 7.636719 51.851562 7.824219 51.460938 7.984375 51.058594 C 8.007812 51.011719 8.042969 50.988281 8.066406 50.988281 C 8.066406 50.988281 8.066406 50.988281 8.066406 50.976562 C 8.066406 50.917969 8.097656 50.882812 8.132812 50.871094 C 8.121094 50.839844 8.121094 50.816406 8.109375 50.78125 C 7.476562 51.253906 6.921875 51.726562 6.566406 52.453125 C 6.175781 53.246094 6.152344 54.109375 6.070312 54.964844 C 6.566406 54.527344 7.109375 54.214844 7.476562 53.628906 C 7.902344 52.957031 7.984375 52.210938 8.042969 51.460938 Z M 7.753906 47.359375 C 7.753906 47.3125 7.753906 47.265625 7.742188 47.21875 C 7.613281 47.390625 7.453125 47.554688 7.339844 47.691406 C 6.957031 48.140625 6.53125 48.511719 6.058594 48.855469 C 6 48.902344 5.933594 48.808594 5.992188 48.765625 C 6.335938 48.453125 6.671875 48.117188 6.980469 47.773438 C 7.28125 47.4375 7.488281 47.070312 7.730469 46.710938 C 7.730469 46.632812 7.730469 46.550781 7.71875 46.46875 C 6.820312 47.035156 6.035156 47.589844 5.679688 48.648438 C 5.484375 49.226562 5.449219 49.847656 5.011719 50.226562 C 5.738281 50.078125 6.242188 49.398438 6.726562 48.855469 C 7.132812 48.371094 7.464844 47.886719 7.753906 47.359375 Z M 8.007812 37.964844 C 7.660156 38.589844 7.152344 39.117188 6.761719 39.71875 C 6.40625 40.269531 6.046875 40.824219 5.679688 41.375 C 6.660156 40.351562 7.707031 39.382812 8.007812 37.964844 Z M 6.152344 39.878906 C 5.816406 40.546875 5.550781 41.238281 5.183594 41.894531 C 5.644531 41.132812 6.128906 40.375 6.613281 39.625 C 7.050781 38.945312 7.648438 38.3125 7.996094 37.585938 C 8.019531 37.539062 8.054688 37.527344 8.085938 37.539062 C 8.109375 37.480469 8.15625 37.445312 8.214844 37.4375 C 8.167969 37.425781 8.132812 37.390625 8.15625 37.332031 C 8.261719 36.847656 7.671875 36.535156 7.835938 36.042969 C 7.960938 35.613281 8.433594 35.394531 8.59375 34.992188 C 8.515625 34.96875 8.421875 34.945312 8.339844 34.945312 C 8.15625 34.945312 8.019531 35.0625 7.84375 35.074219 L 7.835938 35.074219 C 7.835938 35.085938 7.835938 35.097656 7.84375 35.109375 C 7.855469 35.152344 7.8125 35.199219 7.777344 35.222656 C 7.789062 35.246094 7.8125 35.269531 7.824219 35.292969 C 7.855469 35.351562 7.777344 35.40625 7.730469 35.363281 C 7.074219 34.613281 6.371094 34.230469 5.449219 33.886719 C 4.871094 33.679688 4.628906 33.34375 4.25 32.976562 C 4.964844 34.347656 6.164062 34.992188 7.648438 35.453125 C 7.765625 35.488281 7.753906 35.683594 7.613281 35.671875 C 7.605469 35.671875 7.59375 35.671875 7.59375 35.671875 C 7.582031 35.71875 7.546875 35.765625 7.476562 35.789062 C 7.417969 35.8125 7.375 35.824219 7.316406 35.832031 C 7.316406 35.9375 7.339844 36.019531 7.382812 36.085938 C 7.453125 36.097656 7.511719 36.109375 7.582031 36.132812 C 7.648438 36.15625 7.648438 36.273438 7.558594 36.273438 C 7.546875 36.273438 7.535156 36.273438 7.511719 36.273438 C 7.535156 36.292969 7.546875 36.328125 7.558594 36.351562 C 7.636719 36.363281 7.671875 36.46875 7.613281 36.523438 C 7.660156 36.746094 7.613281 36.964844 7.777344 37.148438 C 7.855469 37.160156 7.914062 37.214844 7.914062 37.285156 C 7.996094 37.332031 8.042969 37.457031 7.972656 37.539062 C 7.246094 38.277344 6.601562 38.957031 6.152344 39.878906 Z M 4.019531 32.5625 C 4.03125 32.59375 4.054688 32.640625 4.078125 32.675781 C 4.078125 32.675781 4.089844 32.675781 4.089844 32.6875 C 4.125 32.710938 4.144531 32.734375 4.167969 32.757812 C 4.113281 32.6875 4.066406 32.628906 4.019531 32.5625 Z M 5.472656 33.503906 C 5.113281 33.355469 4.664062 33.160156 4.332031 32.894531 C 4.527344 33.101562 4.675781 33.34375 4.917969 33.503906 C 5.308594 33.757812 5.804688 33.828125 6.230469 34.023438 C 6.75 34.253906 7.210938 34.589844 7.570312 35.015625 C 7.351562 34.507812 7.199219 34.09375 6.589844 33.851562 C 6.230469 33.714844 5.839844 33.65625 5.472656 33.503906 Z M 7.109375 32.617188 C 7.375 33.320312 7.636719 34.023438 7.867188 34.738281 C 7.996094 34.65625 8.167969 34.625 8.304688 34.625 C 8.304688 34.625 8.304688 34.625 8.316406 34.625 C 8.203125 34.324219 8.214844 33.976562 8.214844 33.65625 C 8.214844 33.042969 8.214844 32.433594 8.226562 31.835938 C 8.226562 31.753906 8.351562 31.753906 8.351562 31.835938 C 8.386719 32.78125 8.304688 33.746094 8.527344 34.65625 C 8.640625 34.691406 8.757812 34.738281 8.871094 34.785156 C 8.757812 34.242188 8.824219 33.65625 8.894531 33.113281 C 8.90625 33.042969 9.007812 33.042969 9.007812 33.113281 C 8.953125 33.691406 9.019531 34.253906 9.054688 34.820312 C 9.160156 34.832031 9.273438 34.808594 9.390625 34.738281 L 9.390625 34.726562 C 9.585938 34.058594 9.746094 33.285156 10.140625 32.699219 C 10.402344 32.308594 10.761719 32.042969 10.875 31.558594 C 10.957031 31.191406 10.933594 30.808594 10.886719 30.429688 C 10.390625 30.625 9.851562 30.785156 9.320312 30.832031 C 9.285156 31.167969 9.273438 31.488281 9.261719 31.824219 C 9.261719 31.890625 9.160156 31.902344 9.148438 31.835938 C 9.089844 31.511719 9.089844 31.167969 9.125 30.84375 C 8.363281 30.878906 7.636719 30.707031 7.074219 30.175781 C 6.453125 30.949219 6.808594 31.8125 7.109375 32.617188 Z M 9.054688 36.421875 C 9.113281 36.273438 9.113281 36.121094 8.941406 36.042969 L 8.929688 36.03125 C 8.628906 36.132812 8.363281 36.132812 8.144531 35.890625 C 7.972656 36.15625 8.042969 36.375 8.144531 36.605469 C 8.167969 36.605469 8.179688 36.605469 8.203125 36.617188 C 8.386719 36.710938 8.546875 36.6875 8.699219 36.558594 C 8.765625 36.515625 8.824219 36.457031 8.90625 36.421875 C 8.953125 36.410156 9.007812 36.410156 9.054688 36.421875 Z M 8.710938 37.515625 C 8.746094 37.480469 8.800781 37.457031 8.847656 37.480469 C 8.777344 37.296875 8.789062 37.089844 8.835938 36.894531 C 8.847656 36.835938 8.882812 36.777344 8.90625 36.722656 C 8.789062 36.753906 8.628906 36.835938 8.558594 36.847656 C 8.445312 36.871094 8.339844 36.847656 8.238281 36.8125 C 8.304688 36.976562 8.363281 37.148438 8.328125 37.332031 C 8.351562 37.332031 8.375 37.34375 8.398438 37.355469 C 8.503906 37.457031 8.605469 37.503906 8.710938 37.515625 Z M 9.898438 34.324219 C 9.886719 34.371094 9.839844 34.382812 9.804688 34.382812 C 9.746094 34.53125 9.6875 34.691406 9.621094 34.84375 C 9.597656 34.890625 9.550781 34.910156 9.503906 34.898438 C 9.367188 35.085938 9.136719 35.109375 8.90625 35.074219 C 8.894531 35.074219 8.894531 35.074219 8.882812 35.074219 C 8.734375 35.394531 8.457031 35.523438 8.238281 35.765625 C 8.558594 36.074219 8.765625 35.789062 9.078125 35.707031 C 9.296875 35.660156 9.503906 35.789062 9.722656 35.765625 C 9.722656 35.753906 9.722656 35.742188 9.722656 35.730469 C 9.699219 35.695312 9.699219 35.636719 9.734375 35.613281 C 9.769531 35.429688 9.886719 35.222656 9.816406 35.074219 C 9.804688 35.074219 9.792969 35.0625 9.792969 35.0625 C 9.78125 35.0625 9.769531 35.074219 9.757812 35.074219 C 9.597656 35.109375 9.527344 34.867188 9.6875 34.820312 C 9.78125 34.796875 9.863281 34.773438 9.941406 34.75 C 10.589844 34.265625 10.945312 33.460938 11.382812 32.792969 C 11.71875 32.273438 12.0625 31.730469 12.445312 31.246094 C 12.480469 31.15625 12.523438 31.0625 12.570312 30.980469 C 11.511719 31.960938 10.347656 32.835938 9.898438 34.324219 Z M 12.121094 32.054688 C 11.796875 32.503906 11.464844 32.964844 11.164062 33.425781 C 10.898438 33.828125 10.65625 34.21875 10.335938 34.554688 C 11.210938 34.070312 11.730469 33.113281 12.085938 32.167969 C 12.085938 32.121094 12.109375 32.089844 12.121094 32.054688 Z M 15.902344 35.789062 L 15.914062 35.789062 C 15.914062 35.777344 15.925781 35.777344 15.925781 35.765625 C 15.925781 35.777344 15.914062 35.777344 15.902344 35.789062 Z M 17.445312 42.308594 C 17.734375 42.875 17.859375 43.554688 17.929688 44.15625 C 17.941406 44.234375 17.8125 44.246094 17.789062 44.175781 C 17.664062 43.648438 17.527344 43.058594 17.285156 42.574219 C 17.019531 42.046875 16.617188 41.816406 16.144531 41.550781 C 16.097656 42.679688 16.257812 43.695312 17.089844 44.535156 C 17.492188 44.949219 17.976562 45.226562 18.296875 45.675781 C 18.207031 44.847656 18.148438 43.96875 17.929688 43.1875 C 17.835938 42.804688 17.664062 42.53125 17.445312 42.308594 Z M 6.496094 44.0625 C 6.578125 43.878906 6.660156 43.671875 6.75 43.472656 C 6.117188 44.003906 5.609375 44.582031 5.320312 45.375 C 5.300781 45.457031 5.171875 45.421875 5.195312 45.339844 C 5.4375 44.582031 5.875 43.84375 6.507812 43.347656 C 5.898438 43.625 5.34375 43.992188 4.882812 44.523438 C 4.398438 45.085938 4.179688 45.835938 3.671875 46.367188 C 4.421875 46.425781 4.929688 46.230469 5.4375 45.617188 C 5.863281 45.132812 6.230469 44.636719 6.496094 44.0625 Z M 6.832031 43.289062 C 6.84375 43.253906 6.867188 43.222656 6.878906 43.199219 C 6.84375 43.210938 6.808594 43.222656 6.785156 43.234375 C 6.796875 43.242188 6.820312 43.265625 6.832031 43.289062 Z M 19.371094 39.992188 C 19.394531 40.097656 19.265625 40.144531 19.207031 40.074219 C 19.195312 40.074219 19.175781 40.074219 19.164062 40.0625 C 18.355469 39.488281 17.46875 39.636719 16.59375 39.289062 C 16.15625 39.117188 15.773438 38.828125 15.542969 38.449219 C 15.601562 39.371094 15.832031 40.292969 16.003906 41.179688 C 16.039062 41.144531 16.097656 41.125 16.15625 41.132812 C 18.4375 41.585938 18.355469 44.132812 18.480469 45.941406 C 18.503906 45.976562 18.515625 46.019531 18.539062 46.066406 C 18.585938 46.183594 18.402344 46.25 18.34375 46.148438 C 17.941406 45.25 16.8125 44.867188 16.304688 43.992188 C 15.878906 43.253906 15.648438 42.289062 15.890625 41.457031 C 15.902344 41.421875 15.925781 41.398438 15.945312 41.375 C 15.945312 41.363281 15.945312 41.355469 15.945312 41.34375 C 15.945312 41.332031 15.945312 41.320312 15.945312 41.308594 C 15.925781 41.308594 15.914062 41.296875 15.902344 41.261719 C 15.683594 40.535156 15.53125 39.773438 15.394531 39.027344 C 15.3125 38.597656 15.1875 38.128906 15.234375 37.6875 C 14.863281 37.964844 14.425781 38.136719 13.964844 38.171875 C 13.296875 38.21875 12.699219 37.941406 12.132812 37.621094 C 11.808594 37.4375 11.5 37.226562 11.175781 37.054688 C 10.808594 36.859375 10.414062 36.789062 10.046875 36.640625 C 10.023438 36.675781 10.011719 36.710938 9.988281 36.746094 C 10.679688 36.777344 11.246094 37.171875 11.742188 37.675781 C 12.664062 38.597656 13.574219 39.589844 14.390625 40.605469 C 14.449219 40.671875 14.355469 40.765625 14.300781 40.695312 L 14.289062 40.683594 C 14.265625 40.695312 14.242188 40.695312 14.207031 40.683594 C 13.171875 40.097656 12.203125 39.371094 11.257812 38.667969 C 10.773438 38.300781 10.160156 37.953125 9.792969 37.457031 C 10.3125 38.980469 12.109375 39.960938 12.664062 41.492188 C 12.859375 42.035156 12.871094 42.703125 12.546875 43.210938 C 12.132812 43.855469 11.382812 43.785156 10.773438 44.109375 C 10.691406 44.15625 10.609375 44.027344 10.691406 43.980469 C 10.773438 43.925781 10.851562 43.890625 10.945312 43.84375 C 10.300781 43.164062 9.898438 42.300781 9.757812 41.363281 C 9.746094 41.261719 9.910156 41.214844 9.917969 41.320312 C 10.046875 42.242188 10.449219 43.035156 11.09375 43.695312 C 11.117188 43.714844 11.128906 43.738281 11.128906 43.761719 C 11.269531 43.714844 11.417969 43.683594 11.578125 43.636719 C 12.179688 43.464844 12.59375 43.023438 12.628906 42.378906 C 12.675781 41.410156 11.960938 40.683594 11.371094 40.027344 C 10.738281 39.324219 9.632812 38.4375 9.378906 37.4375 C 9.367188 37.445312 9.355469 37.457031 9.34375 37.46875 C 9.238281 37.574219 9.136719 37.667969 8.996094 37.699219 C 8.988281 37.699219 8.976562 37.699219 8.953125 37.710938 C 9.03125 38.3125 9.089844 38.910156 9.171875 39.511719 C 9.183594 39.589844 9.03125 39.613281 9.019531 39.53125 C 8.929688 38.933594 8.824219 38.335938 8.734375 37.722656 C 8.675781 37.710938 8.617188 37.699219 8.570312 37.6875 C 8.503906 38.820312 7.949219 39.890625 7.914062 41.054688 C 7.890625 41.917969 8.59375 45.285156 10.117188 44.132812 C 10.183594 44.085938 10.242188 44.175781 10.195312 44.234375 C 10.148438 44.292969 10.105469 44.339844 10.046875 44.386719 C 11.1875 44.625 11.003906 46.367188 12.015625 46.828125 C 12.039062 46.839844 12.050781 46.851562 12.050781 46.863281 C 12.121094 46.910156 12.121094 47.035156 12.027344 47.058594 C 10.390625 47.449219 9.21875 46.597656 8.191406 45.492188 C 8.203125 46 8.203125 46.492188 8.214844 47 C 8.226562 46.976562 8.238281 46.964844 8.25 46.953125 C 8.824219 46.609375 9.515625 46.921875 9.964844 47.347656 C 10.75 48.09375 10.832031 49.8125 11.949219 50.148438 C 12.027344 50.171875 12.027344 50.25 11.984375 50.296875 C 11.984375 50.296875 11.984375 50.308594 11.972656 50.308594 C 11.3125 50.757812 10.425781 50.066406 9.910156 49.675781 C 9.273438 49.191406 8.722656 48.613281 8.226562 48.003906 C 8.261719 48.984375 8.339844 49.949219 8.492188 50.90625 C 8.503906 50.894531 8.515625 50.882812 8.527344 50.871094 C 9.101562 50.585938 9.746094 50.722656 10.253906 51.101562 C 11.070312 51.726562 11.246094 53.175781 12.214844 53.535156 L 12.226562 53.535156 C 12.410156 53.546875 12.410156 53.835938 12.226562 53.824219 C 10.761719 53.707031 9.46875 53.015625 8.664062 51.804688 C 8.8125 52.476562 9.019531 53.144531 9.285156 53.800781 C 9.710938 54.109375 10.140625 54.492188 10.324219 54.988281 C 10.609375 55.734375 10.414062 56.714844 10.390625 57.5 C 10.390625 57.523438 10.378906 57.546875 10.371094 57.558594 C 10.378906 57.625 10.289062 57.648438 10.265625 57.582031 C 10.230469 57.570312 10.207031 57.546875 10.207031 57.5 C 10.207031 57.488281 10.207031 57.464844 10.207031 57.453125 C 9.988281 56.890625 9.574219 56.40625 9.332031 55.839844 C 9.078125 55.230469 8.988281 54.640625 9.066406 53.984375 C 9.066406 53.949219 9.089844 53.9375 9.101562 53.914062 C 8.777344 53.1875 8.527344 52.441406 8.339844 51.679688 C 8.285156 52.324219 8.085938 52.957031 7.777344 53.523438 C 7.351562 54.308594 6.691406 54.628906 6.058594 55.207031 C 6.023438 55.273438 5.898438 55.261719 5.886719 55.171875 C 5.738281 53.363281 6.277344 51.265625 8.066406 50.445312 C 7.925781 49.617188 7.835938 48.773438 7.777344 47.921875 C 7.441406 48.441406 7.015625 48.902344 6.589844 49.351562 C 6.09375 49.859375 5.496094 50.574219 4.722656 50.402344 C 4.710938 50.402344 4.699219 50.410156 4.6875 50.410156 C 4.617188 50.445312 4.550781 50.378906 4.550781 50.320312 C 4.539062 50.273438 4.550781 50.226562 4.605469 50.226562 C 4.617188 50.226562 4.617188 50.226562 4.628906 50.226562 C 5.289062 49.847656 5.21875 49.074219 5.425781 48.441406 C 5.539062 48.082031 5.714844 47.75 5.933594 47.4375 C 6.347656 46.875 6.96875 46.320312 7.660156 46.160156 C 7.671875 46.160156 7.683594 46.160156 7.695312 46.160156 C 7.660156 44.984375 7.660156 43.808594 7.625 42.644531 C 6.441406 44.15625 5.898438 47.011719 3.476562 46.503906 C 3.386719 46.480469 3.410156 46.332031 3.5 46.34375 C 3.882812 45.953125 4.007812 45.421875 4.285156 44.960938 C 4.480469 44.625 4.722656 44.328125 4.988281 44.050781 C 5.550781 43.472656 6.265625 43.011719 7.039062 42.804688 C 7.050781 42.804688 7.0625 42.804688 7.074219 42.804688 C 7.210938 42.585938 7.382812 42.402344 7.613281 42.277344 C 7.613281 42.253906 7.613281 42.230469 7.613281 42.207031 C 7.476562 41.5625 7.476562 40.882812 7.558594 40.222656 C 7.582031 40.003906 7.613281 39.761719 7.660156 39.519531 C 6.902344 40.628906 5.726562 41.503906 4.859375 42.507812 C 4.804688 42.574219 4.699219 42.472656 4.757812 42.402344 C 4.78125 42.367188 4.804688 42.34375 4.839844 42.308594 C 4.839844 42.300781 4.839844 42.289062 4.839844 42.265625 C 5.5625 40.894531 5.945312 39.246094 6.957031 38.058594 C 6.589844 38.367188 6.222656 38.679688 5.804688 38.933594 C 5.113281 39.359375 4.214844 39.417969 3.421875 39.359375 C 1.992188 39.257812 1.4375 37.757812 1.921875 36.523438 C 1.945312 36.457031 2.050781 36.492188 2.027344 36.558594 C 1.738281 37.390625 1.980469 38.679688 2.925781 38.96875 C 3.5 39.152344 4.480469 39.050781 5.035156 38.886719 C 6 38.597656 6.554688 37.585938 7.464844 37.25 C 7.363281 37.101562 7.328125 36.917969 7.292969 36.710938 C 7.292969 36.699219 7.292969 36.699219 7.28125 36.6875 C 6.738281 36.941406 6.347656 37.425781 5.804688 37.699219 C 5.332031 37.941406 4.839844 38.035156 4.308594 38.023438 C 4.238281 38.023438 4.238281 37.929688 4.308594 37.917969 C 5.089844 37.886719 5.769531 37.609375 6.359375 37.089844 C 6.648438 36.835938 6.878906 36.628906 7.199219 36.503906 C 7.164062 36.445312 7.121094 36.398438 7.074219 36.339844 C 6.242188 36.503906 5.496094 37.136719 4.617188 36.882812 C 4.550781 36.859375 4.585938 36.765625 4.640625 36.777344 C 5.496094 36.984375 6.175781 36.226562 6.957031 36.109375 C 6.933594 36.042969 6.933594 35.960938 6.933594 35.878906 C 6.359375 35.867188 5.804688 35.570312 5.230469 35.476562 C 4.203125 35.304688 2.890625 35.394531 2.222656 36.285156 C 2.164062 36.363281 2.027344 36.292969 2.082031 36.203125 C 2.511719 35.511719 3.292969 35.257812 4.054688 35.140625 C 4.46875 35.085938 4.882812 35.0625 5.300781 35.121094 C 5.761719 35.1875 6.175781 35.371094 6.613281 35.464844 C 5.367188 34.96875 4.34375 33.78125 3.882812 32.59375 C 3.859375 32.527344 3.949219 32.503906 3.984375 32.550781 C 3.972656 32.503906 4.042969 32.46875 4.078125 32.503906 C 4.828125 33.320312 5.933594 33.308594 6.867188 33.746094 C 7.050781 33.828125 7.199219 33.957031 7.328125 34.09375 C 7.027344 33.320312 6.726562 32.527344 6.566406 31.742188 C 6.441406 31.144531 6.484375 30.542969 6.957031 30.117188 C 6.902344 30.058594 6.84375 29.992188 6.785156 29.921875 C 6.738281 29.863281 6.84375 29.796875 6.890625 29.839844 C 8.238281 31.421875 10.703125 30.382812 12.074219 29.335938 C 12.777344 28.792969 13.332031 28.148438 13.816406 27.421875 C 14.160156 26.902344 14.496094 26.347656 14.992188 25.96875 C 15.128906 25.863281 15.335938 26.074219 15.234375 26.210938 C 14.070312 27.777344 13.089844 29.402344 11.269531 30.289062 C 11.1875 30.324219 11.105469 30.371094 11.015625 30.40625 C 11.117188 31.039062 11.199219 31.671875 10.863281 32.226562 C 11.566406 31.488281 12.351562 30.738281 13.171875 30.140625 C 13.191406 30.117188 13.226562 30.128906 13.238281 30.152344 C 13.296875 30.164062 13.332031 30.234375 13.285156 30.289062 C 13.113281 30.476562 12.960938 30.683594 12.824219 30.902344 C 12.847656 30.925781 12.859375 30.960938 12.835938 30.992188 C 12.730469 31.15625 12.628906 31.304688 12.523438 31.464844 C 11.984375 32.617188 11.636719 33.976562 10.632812 34.679688 C 10.785156 34.648438 10.921875 34.601562 11.0625 34.519531 C 11.292969 34.394531 11.488281 34.21875 11.695312 34.070312 C 12.097656 33.769531 12.5 33.597656 12.996094 33.609375 C 12.949219 33.472656 12.917969 33.320312 12.90625 33.183594 C 12.753906 32.089844 13.054688 30.902344 13.480469 29.898438 C 13.917969 28.863281 14.828125 27.984375 15.035156 26.855469 C 15.070312 26.683594 15.371094 26.71875 15.347656 26.902344 C 15.265625 27.628906 14.863281 28.171875 14.472656 28.769531 C 13.953125 29.566406 13.5625 30.429688 13.34375 31.363281 C 13.078125 32.527344 13.066406 33.644531 13.851562 34.625 C 14.125 34.96875 14.472656 35.363281 14.839844 35.59375 C 15.175781 35.800781 15.507812 35.855469 15.832031 35.824219 C 15.808594 35.824219 15.785156 35.800781 15.773438 35.765625 C 15.507812 35.074219 15.507812 34.335938 15.519531 33.609375 C 15.519531 33.527344 15.636719 33.527344 15.636719 33.609375 C 15.660156 34.335938 15.695312 35.027344 15.925781 35.71875 C 15.9375 35.742188 15.925781 35.765625 15.925781 35.777344 C 15.945312 35.742188 15.980469 35.730469 16.027344 35.730469 C 16.085938 35.730469 16.132812 35.742188 16.1875 35.742188 C 16.234375 35.730469 16.292969 35.71875 16.339844 35.695312 C 16.234375 35.476562 16.246094 35.175781 16.257812 34.96875 C 16.269531 34.898438 16.363281 34.898438 16.363281 34.96875 C 16.363281 35.132812 16.386719 35.292969 16.429688 35.441406 C 16.453125 35.511719 16.476562 35.570312 16.511719 35.636719 C 16.59375 35.601562 16.683594 35.582031 16.765625 35.546875 C 16.867188 35.511719 16.902344 35.660156 16.8125 35.707031 C 16.730469 35.742188 16.636719 35.765625 16.558594 35.800781 L 16.558594 35.8125 C 18.402344 36.238281 19.058594 38.277344 19.371094 39.992188 Z M 29.824219 4.789062 C 30.121094 5.15625 30.304688 5.59375 30.238281 6.101562 C 30.214844 6.273438 30.167969 6.457031 30.121094 6.632812 C 30.789062 5.570312 31.4375 4.5 31.597656 3.195312 C 31.609375 3.117188 31.734375 3.105469 31.734375 3.195312 C 31.757812 4.097656 31.390625 4.925781 30.953125 5.699219 C 30.582031 6.367188 30.203125 7.046875 29.789062 7.714844 C 30.351562 7.117188 30.984375 6.5625 31.609375 6.089844 C 31.597656 6.066406 31.597656 6.03125 31.609375 6.007812 C 31.886719 5.480469 32.21875 5.0625 32.414062 4.476562 C 32.589844 3.957031 32.691406 3.40625 32.703125 2.863281 C 32.714844 2.113281 32.472656 1.375 32.703125 0.671875 C 31.4375 1.847656 29.996094 2.945312 29.824219 4.789062 Z M 35.6875 3.589844 C 36.078125 3.21875 36.378906 2.78125 36.769531 2.402344 C 37.289062 1.894531 37.890625 1.480469 38.488281 1.078125 C 38.546875 1.042969 38.613281 1.132812 38.570312 1.179688 C 37.902344 1.710938 37.230469 2.253906 36.679688 2.910156 C 36.402344 3.242188 36.160156 3.625 35.828125 3.910156 C 36.980469 3.679688 37.855469 3.09375 38.613281 2.089844 C 39.214844 1.308594 39.917969 0.800781 40.769531 0.363281 C 39.59375 0.28125 38.476562 0.535156 37.484375 1.261719 C 36.597656 1.894531 36.171875 2.714844 35.6875 3.589844 Z M 35.515625 5.742188 C 35.828125 5.710938 36.148438 5.71875 36.472656 5.753906 C 37.429688 5.871094 38.382812 6.078125 39.339844 6.238281 C 39.433594 6.25 39.410156 6.414062 39.316406 6.402344 C 37.914062 6.25 36.265625 5.824219 34.894531 6.285156 C 35.617188 6.296875 36.277344 6.539062 36.980469 6.828125 C 38.269531 7.367188 39.386719 7.035156 40.449219 6.273438 C 39.433594 6.007812 38.789062 5.050781 37.648438 5.039062 C 36.828125 5.027344 36.148438 5.339844 35.515625 5.742188 Z M 34.695312 6.285156 C 34.707031 6.285156 34.71875 6.285156 34.730469 6.285156 L 34.71875 6.273438 C 34.707031 6.273438 34.695312 6.285156 34.695312 6.285156 Z M 28.289062 3.691406 C 28.703125 3.875 29.175781 4.140625 29.546875 4.5 C 29.671875 2.703125 31.597656 1.320312 32.851562 0.28125 C 32.933594 0.210938 33.050781 0.316406 32.992188 0.398438 C 33.003906 0.417969 33.015625 0.453125 32.992188 0.488281 C 32.519531 1.457031 33.027344 2.792969 32.875 3.855469 C 32.796875 4.417969 32.609375 5.074219 32.277344 5.59375 C 33.152344 4.984375 34.109375 4.441406 35.089844 4.074219 C 35.089844 4.039062 35.113281 4.003906 35.15625 4.003906 C 35.167969 3.992188 35.179688 3.96875 35.203125 3.957031 C 35.214844 3.957031 35.214844 3.945312 35.214844 3.945312 C 35.664062 1.398438 38.8125 -0.582031 41.277344 0.15625 C 41.4375 0.199219 41.371094 0.429688 41.207031 0.410156 C 41.195312 0.410156 41.183594 0.410156 41.164062 0.410156 C 41.152344 0.417969 41.140625 0.441406 41.117188 0.453125 C 40.460938 0.800781 39.789062 1.132812 39.25 1.664062 C 38.789062 2.113281 38.464844 2.691406 37.96875 3.117188 C 37.277344 3.703125 36.402344 4.085938 35.503906 4.140625 C 35.445312 4.175781 35.378906 4.210938 35.308594 4.234375 C 35.25 4.257812 35.203125 4.234375 35.179688 4.210938 C 33.972656 4.820312 32.839844 5.457031 31.78125 6.308594 C 32.277344 6.113281 32.796875 6.007812 33.289062 6.101562 C 33.578125 6.148438 33.867188 6.226562 34.144531 6.34375 C 34.144531 6.332031 34.15625 6.332031 34.15625 6.320312 C 35.066406 5.546875 36.160156 4.820312 37.382812 4.765625 C 37.945312 4.730469 38.476562 4.867188 38.949219 5.167969 C 39.515625 5.523438 40.019531 5.859375 40.621094 6.171875 C 40.667969 6.160156 40.710938 6.226562 40.691406 6.273438 C 40.273438 7.082031 39.121094 7.4375 38.28125 7.496094 C 37.738281 7.53125 37.265625 7.378906 36.78125 7.160156 C 36.089844 6.863281 35.492188 6.6875 34.789062 6.644531 C 35.273438 6.90625 35.699219 7.253906 36.023438 7.65625 C 36.078125 7.726562 35.988281 7.820312 35.917969 7.761719 C 35.179688 7.09375 33.984375 6.4375 32.957031 6.4375 C 32.023438 6.4375 30.8125 7.105469 30.316406 7.886719 C 29.984375 8.417969 29.777344 8.890625 29.269531 9.28125 C 28.449219 9.9375 28.289062 10.628906 27.96875 11.574219 C 27.921875 11.714844 27.703125 11.691406 27.703125 11.539062 C 27.738281 10.78125 27.96875 10.054688 28.449219 9.488281 C 28.761719 8.683594 29.269531 7.980469 29.625 7.183594 C 29.9375 6.480469 30.097656 5.8125 29.660156 5.179688 C 29.613281 5.167969 29.558594 5.132812 29.558594 5.0625 C 29.558594 5.050781 29.558594 5.039062 29.558594 5.027344 C 29.546875 5.019531 29.535156 4.996094 29.523438 4.984375 C 29.140625 4.566406 28.601562 4.28125 28.082031 4.0625 C 27.851562 3.945312 28.046875 3.589844 28.289062 3.691406 Z M 19.230469 21.625 C 19.992188 21.222656 20.832031 21.070312 21.546875 20.550781 C 22.355469 19.976562 23.035156 19.113281 23.277344 18.144531 C 23.277344 18.121094 23.3125 18.132812 23.300781 18.15625 C 23.082031 19.136719 22.664062 19.929688 21.894531 20.585938 C 21.214844 21.175781 20.199219 21.796875 19.277344 21.84375 C 19.175781 21.855469 19.128906 21.683594 19.230469 21.625 " fill-opacity="1" fill-rule="nonzero"/></g></g></g></g></svg>